<svg xmlns="http://www.w3.org/2000/svg" viewBox="0 0 247.5 247.5" version="1.0"><defs><clipPath id="a"><path d="M106 125.2h111.1V179H106Zm0 0"/></clipPath><clipPath id="b"><path d="M105.57 166H116v5h-10.43Zm0 0"/></clipPath></defs><g clip-path="url(#a)"><path fill="#0c8841" d="M163.5 174.9c.4-.12.68.08.95.27.68.49 1.39.9 2.19 1.15.5.16 1 .18 1.5-.03.43-.2.88-.37 1.3-.59.64-.32.94-1.32.5-1.88-.58-.77-1.2-1.49-1.87-2.18a25.9 25.9 0 0 0-4.28-3.51c-1.11-.77-2.25-1.49-3.38-2.23a1.76 1.76 0 0 1-.47-.44.5.5 0 0 1-.04-.44c.05-.1.25-.18.38-.17.19 0 .38.08.56.14a14.4 14.4 0 0 1 3.84 2.28 47.99 47.99 0 0 0 5.75 3.83c.74.42 1.5.8 2.39.78 1.3-.03 2.16-1.21 1.68-2.42a4.62 4.62 0 0 0-.8-1.25 17.17 17.17 0 0 0-3.7-3.04c-1.63-1.1-3.33-2.1-4.8-3.42-.32-.29-.75-.45-1.13-.65-.52-.28-1.06-.51-1.56-.81-.49-.3-.9-.69-1.03-1.26-.05-.21-.04-.42.03-.63.1-.32.47-.41.75-.22.13.09.22.21.33.32 1.02.92 1.99 1.9 3.05 2.75 1.14.91 2.35 1.73 3.55 2.56a125.8 125.8 0 0 0 4.72 3.1 6.74 6.74 0 0 0 3.56 1.05c1.32 0 2.6-1.03 2.9-2.32.1-.46-.03-.85-.26-1.24a11.35 11.35 0 0 0-3.2-3.49c-.86-.6-1.75-1.15-2.6-1.75-1.08-.74-2.13-1.51-3.21-2.25-1.36-.92-2.75-1.8-4.1-2.72a8.78 8.78 0 0 1-2.68-2.65 4.9 4.9 0 0 1-.37-.76c-.11-.27-.15-.56.11-.78.2-.17.6-.16.84.09.33.34.62.7.88 1.08.33.46.6.96.9 1.44.6.94 1.38 1.7 2.4 2.16 2.07.96 3.87 2.33 5.66 3.72 1.1.87 2.37 1.45 3.64 2.01 1.35.6 2.64 1.28 3.81 2.2.47.37 1.05.63 1.62.8.95.3 2.06-.28 2.46-1.2.25-.56.03-1.05-.25-1.53a.2.2 0 0 0-.13-.1c-.4-.09-.56-.4-.73-.73a3.46 3.46 0 0 0-.47-.69c-2.32-2.55-5.03-4.66-7.75-6.75-1.1-.84-2.21-1.66-3.34-2.45a18.67 18.67 0 0 1-3.29-3.12 28.46 28.46 0 0 0-4.56-4c-.23-.17-.6-.18-.8-.38-.38-.35-.84-.43-1.3-.56a2.72 2.72 0 0 0-.73-.08c-.38 0-.47-.08-.42-.45-1.45.01-2.95.33-4.38-.38-.38.48-.82.98-1.18 1.53-1.24 1.86-3.05 2.79-5.15 3.27l-4.52 1.06c-.65.15-1.28.04-1.9-.17-.73-.25-.98-.8-.68-1.52.08-.21.19-.41.31-.6.97-1.47 1.96-2.9 2.91-4.38a48.96 48.96 0 0 0 1.91-3.15 8.36 8.36 0 0 1 5.37-4.16c1.98-.55 4-.98 6-1.42 1.25-.27 2.5-.14 3.77 0 2.5.29 4.9.97 7.27 1.8.9.3 1.75.78 2.65 1.1.62.2 1.29.35 1.94.35 1.34.03 2.68-.06 4.01-.11.13-.01.3-.13.37-.24.28-.46.64-.83 1.1-1.1a8.59 8.59 0 0 1 4.46-1.26c.29 0 .56.05.83.15.41.13.57.5.3.85-.2.28-.5.56-.82.68-.7.26-1.42.43-2.13.61l-3.26.82c-.08.02-.18.16-.18.25-.01.46-.02.92.02 1.37l.82 7.7c.45 4.3 1.32 8.53 2.63 12.67.19.6.28 1.23.52 1.81.16.38.5.7.76 1.03.04.03.15.03.22.01 1.91-.46 3.87-.45 5.81-.51.67-.02 1.34 0 2.06 0-.09-.77-.15-1.47-.25-2.17-.4-2.68-.72-5.37-1.23-8.03-.48-2.53-1.13-5.01-1.74-7.5-.6-2.53-1.26-5.05-1.87-7.57a5.8 5.8 0 0 1-.19-2.53c.14-.65.51-1.1 1.18-1.2.98-.16 1.99-.23 2.97-.4 3-.52 5.99-1.03 8.97-1.6 3.03-.6 5.98-1.52 8.94-2.4 1.05-.3 2.1-.57 3.16-.85l.18-.04c.2-.03.4-.01.43.23.05.24-.13.29-.3.33l-3.85 1.05c-2.48.69-4.95 1.45-7.45 2.03-4.04.95-8.13 1.7-12.26 2.12l-.32.05c-.85.13-1.08.38-1.11 1.24-.03.92.22 1.78.44 2.66.8 3.21 1.57 6.43 2.37 9.63.78 3.14 1.46 6.3 1.87 9.52.27 2.1.49 4.21.76 6.32.2 1.57.45 3.14.67 4.72.03.21.11.3.34.24.96-.21 1.91-.46 2.88-.6 1.68-.25 3.36-.45 5.05-.66 3.1-.4 6.07-1.23 8.91-2.52.96-.43 1.99-.72 2.99-1.03.31-.1.67-.1 1-.07.13.01.32.15.37.28.1.24-.1.4-.3.46-.16.06-.43.09-.5 0-.14-.2-.3-.15-.45-.1-.98.33-2 .61-2.95 1.04a32.64 32.64 0 0 1-10.08 2.67c-2.2.24-4.42.48-6.57 1.07l-.1.02c-.82.16-1.07 0-1.2-.83l-.67-4.75c-.03-.24-.13-.3-.35-.3-1.21.04-2.44.04-3.65.13-1.18.09-2.36.25-3.54.38a2.8 2.8 0 0 0-.24.06l.13.31c.4 1 .13 1.94-.73 2.61-1.06.82-2.17.82-3.3.23a7.4 7.4 0 0 1-1.15-.75c-1.04-.85-2.24-1.4-3.45-1.97.48.53.98 1.02 1.42 1.57.4.5.77 1.05 1.12 1.6.41.65.39 1.34.1 2.03a3.57 3.57 0 0 1-4.06 2.23c-.76-.1-1.49-.39-2.23-.6l-.38-.15c.21.27.37.46.5.66.47.67.74 1.4.58 2.22-.2 1.04-1.26 1.85-2.38 1.87-.96.01-1.8-.35-2.59-.81-1.07-.62-2.12-1.3-3.18-1.95-.08-.05-.17-.11-.28-.13.37.34.76.67 1.1 1.03.81.84 1.62 1.68 2.4 2.56.97 1.11.28 2.85-.87 3.21-.34.1-.65.29-.99.43-.67.3-1.35.3-2.03.03-.54-.2-1.06-.44-1.6-.66-.48 1.5-2.63 2.82-4.68 2.27-1.3-.35-2.4-1-3.27-2.03-.35-.41-.68-.83-1.03-1.26-.05.04-.12.08-.18.14-.38.33-.83.5-1.32.41a5.32 5.32 0 0 1-3.37-1.83 6.22 6.22 0 0 1-.77-1.49c-.2-.47-.16-.98.03-1.54-.17.18-.3.3-.4.44-.5.53-1.11.71-1.81.6-1.03-.16-2-.47-2.84-1.1-1.4-1.03-2.48-2.8-1.73-4.99l.16-.5-1.48 1.1a6.47 6.47 0 0 1-4.29 1.28c-.38-.03-.75-.11-1.1-.24-1.32-.45-1.94-1.59-1.65-2.94.2-.88.63-1.65 1.15-2.36l.2-.25-5.13-2.43c.04 1.01-.86 1.76-1.7 1.38l-.04.78v.26c-.01.89-.2 1.26-1.34 1.3-1.39.04-2.73-.28-4.08-.49a9.2 9.2 0 0 1-2.54-.68c-.65-.3-1.23-.7-1.75-1.18l-.12-.1a.16.16 0 0 0-.08-.03c-.94 2.1-2.18 4.07-2.66 6.36-.17.84-.14 1.66.2 2.47.23.59.63 1 1.22 1.23 1.6.65 3.07.3 4.45-.63a17.71 17.71 0 0 0 4.26-4.1c.47-.63.97-1.23 1.48-1.83.08-.1.27-.1.4-.14.05.14.07.29.1.44 0 .05-.07.11-.1.16-.93 1.13-1.83 2.28-2.79 3.38a13.4 13.4 0 0 1-4.01 3.14c-1.2.62-2.48.66-3.78.23-1.27-.42-1.84-1.38-2.07-2.61a5.9 5.9 0 0 1 .45-3.26c.53-1.34 1.17-2.64 1.77-3.96l.32-.68c.2-.41.46-.81.1-1.28-.08-.13-.08-.34-.06-.51.03-.36.3-.54.67-.51.34.02.58.25.57.59-.02.21-.07.42-.16.62-.07.18-.03.3.1.43a5.6 5.6 0 0 0 3.07 1.68c1.29.27 2.6.44 3.9.62.45.07.91.05 1.37.03.41-.02.49-.14.51-.56l.1-1.73c0-.1 0-.2-.02-.29a9.98 9.98 0 0 1-.24-3.56c.3-4.06 1.32-7.96 2.84-11.73a20.69 20.69 0 0 1 2.3-3.92c.21-.3.36-.63.56-.99-.58-.18-1.1-.29-1.56-.51-.45-.22-.84-.56-1.3-.87l-1.3 1.65c-2.29 2.93-4.03 6.18-5.76 9.44a79.98 79.98 0 0 0-3.25 7.12c-.13.32-.3.63-.46.94-.09.18-.24.3-.45.2-.23-.12-.13-.3-.05-.48.53-1.23 1-2.48 1.58-3.69.96-2.01 1.98-4 2.98-5.98a48.86 48.86 0 0 1 4.05-6.7c.67-.93 1.4-1.81 2.09-2.72.55-.72.5-.95-.4-1.16-.98-.25-1.98-.39-2.97-.61-1.7-.38-3.4-.78-5.08-1.2-2.14-.53-4.34-.73-6.52-.97a33.42 33.42 0 0 1-7.03-1.4c-.54-.18-1.05-.41-1.58-.63-.24-.1-.43-.12-.53.2-.06.18-.22.33-.4.21-.1-.07-.15-.3-.12-.44.11-.53.51-.75 1.03-.6.26.08.52.18.76.3 1.72.76 3.55 1.13 5.39 1.41 1.68.26 3.38.45 5.08.64 1.88.2 3.7.64 5.54 1.06 2.04.47 4.09.88 6.13 1.32.28.06.57.14.84.25.66.26.84.54.83 1.15.55.09 1.1.15 1.63.28.56.14.98.5 1.22 1.04.05.11.14.18.26.2 1.4.18 2.8.36 4.2.5 1 .1 1.94-.22 2.9-.45 1.96-.47 3.93-.92 5.9-1.37.16-.04.33-.07.49-.04.1.02.26.16.25.23a.41.41 0 0 1-.22.29c-.22.07-.46.07-.68.12-1.87.45-3.76.84-5.6 1.37-1.8.5-3.56.55-5.37.2-.65-.12-1.3-.18-1.85-.25-.31.53-.53 1.02-.85 1.44a22.93 22.93 0 0 0-3.44 7.4 38.03 38.03 0 0 0-1.46 7.5c-.08.91-.01 1.84-.01 2.86.21-.27.51-.3.54-.64.01-.22.24-.24.42-.15.6.31 1.2.64 1.82.94 1.36.66 2.72 1.32 4.1 1.95 1.73.78 3.49 1.5 5.21 2.31.85.4 1.71.64 2.63.7.24.02.49.03.71.09.35.1.58.01.78-.3.21-.32.48-.6.74-.87a2.42 2.42 0 0 1 2.38-.72c2 .4 3.47 2.43 3.22 4.44-.07.53-.18 1.05-.28 1.61l.77-.84c.38-.4.76-.84 1.17-1.22a2.8 2.8 0 0 1 4 .11 4.5 4.5 0 0 1 1.4 3.1c.8-.43 1.54-.18 2.28.12.47.19.85.5 1.12.92a5.94 5.94 0 0 1 1.1 4.3Zm17.34-39.5c-.67 0-1.37-.04-2.06 0-1.92.13-3.76-.08-5.52-.94a27.29 27.29 0 0 0-8-2.27 10.78 10.78 0 0 0-3.42-.14c-2.41.4-4.78.96-7.1 1.7a6.8 6.8 0 0 0-4.1 3.2c-1.03 1.9-2.25 3.68-3.4 5.5-.5.8-1.06 1.54-1.59 2.32-.15.22-.29.45-.4.7-.18.38-.09.58.31.73.52.2 1.07.28 1.6.16 1.84-.43 3.67-.86 5.48-1.36 1-.27 2-.64 2.7-1.46.8-.92 1.54-1.9 2.3-2.87a.45.45 0 0 0 .08-.3c-.07-.68-.18-1.37-.22-2.06-.02-.31.06-.63.15-.93.05-.13.22-.3.36-.3.13-.02.31.1.44.2.08.08.13.23.17.35.3.85.27 1.71-.02 2.56-.12.36-.1.44.25.57.11.05.23.08.35.09.89.02 1.78.06 2.67.05a3.76 3.76 0 0 0 2.05-.68c.14-.1.24-.27.32-.42.3-.57.56-1.16.87-1.71.11-.22.31-.4.51-.54.12-.09.36-.13.47-.07.12.06.18.28.2.43 0 .15-.06.3-.11.44-.3.73-.73 1.36-1.3 1.9-.29.26-.3.45-.11.77l.4.74c.06.1.13.21.22.27 1.35.76 2.5 1.78 3.65 2.8.9.8 1.7 1.7 2.51 2.6 1.05 1.18 2.33 2.03 3.57 2.96 3.25 2.44 6.54 4.86 9.38 7.8l.2.14a68.61 68.61 0 0 1-2.66-11.42c-.47-3.86-.92-7.71-1.2-11.51Zm-24.7 39.31.97 1.15a5.62 5.62 0 0 0 3.12 2.01c1.16.29 2.2.05 3.1-.73.3-.25.55-.58.77-.91.08-.11.08-.39 0-.47-.12-.12-.35-.15-.53-.16-.26-.03-.3.22-.41.39-.16.26-.41.33-.6.2-.2-.13-.22-.42-.06-.64.03-.05.08-.08.1-.13.1-.15.21-.3.25-.47a5.26 5.26 0 0 0-.6-3.47 2.66 2.66 0 0 0-2.07-1.52c-.58-.1-.93.05-1.26.6-.27.41-.35.85 0 1.29.1.13.19.26.26.4.41.76.5 1.55.2 2.37-.29.8-.95 1.06-1.73.7-.64-.3-.91-.82-.96-1.58Zm-10.16-10.32.04.07.15.06c1.45.4 2.4 1.43 3.24 2.6.23.32.3.68.16 1.05-.35.93-1.43 1.46-2.35 1.1-.58-.22-1.1-.55-1.65-.85-.87-.5-1.16-1.26-.96-2.22.09-.44.22-.87.34-1.33l-.5-.07c-.07.15-.14.26-.18.38-.34.78-.65 1.6-.5 2.46a4.1 4.1 0 0 0 2.44 3.1c.57.26 1.2.4 1.8.56.53.13 1-.02 1.36-.44.22-.25.42-.53.6-.81.46-.8 1.03-1.53 1.24-2.46.37-1.64 0-3.02-1.34-4.08-.81-.63-1.93-.8-2.66-.38-.53.32-.85.82-1.23 1.26Zm-2.73.35c-.54-.19-1.08-.33-1.59-.55-1.46-.64-2.91-1.3-4.36-1.97-.21-.1-.35-.1-.5.1-.52.68-.96 1.4-1.16 2.24-.27 1.16.23 2.01 1.36 2.37.76.25 1.53.21 2.29.07 1.6-.29 2.81-1.25 3.96-2.26Zm9.12 3.79a6.67 6.67 0 0 0-1.63 2.62c-.1.3-.11.61-.04.92.22.99.75 1.8 1.65 2.29.5.26 1.04.5 1.58.68.68.24 1.16.1 1.57-.5a7.88 7.88 0 0 0 1.43-3.9c0-.05 0-.1-.02-.14-.3.45-.59.92-.91 1.36-.25.32-.6.4-.98.27-1.68-.56-2.72-2.34-2.65-3.6Zm-4.65.28c.55-.02.87-.27 1.15-.62.2-.25.24-.51.02-.77-.32-.4-.64-.8-.98-1.17-.56-.6-1.25-1-2.05-1.2-.15-.04-.29-.08-.34.13-.12.5-.28 1.02-.36 1.54-.03.2 0 .4.08.58.09.18.22.32.4.43.5.32 1.02.62 1.54.9.19.1.41.14.54.18Zm6.3-1c-.5 0-1.14.75-1.03 1.2.28 1.16.97 2 2.05 2.5.25.12.44.07.6-.14.43-.53.73-1.11.83-1.78a.61.61 0 0 0-.16-.48 6.14 6.14 0 0 0-2.1-1.25c-.07-.03-.14-.04-.2-.05Zm3.36 4.08.53-.87c.53-.84.6-1.72.25-2.65a4.65 4.65 0 0 0-1.16-1.63c-1.12-1.1-2.78-.47-3.41.47.29.04.65 0 .92.13.72.37 1.45.76 2.1 1.24.63.47.96 1.17.91 2-.02.4-.08.81-.14 1.32Zm24.5-37.35.4-.08c.96-.25 1.92-.49 2.87-.75.6-.15 1.17-.32 1.75-.51.18-.07.33-.23.54-.38-1.42-.5-4.66.51-5.56 1.72Zm-23.77 37.2c-.27.62-.54 1.16-.76 1.72-.13.33-.07.68.14.97.2.3.5.47.86.44.36-.04.46-.37.54-.67.04-.15.06-.3.07-.45.04-.76-.35-1.34-.85-2.01Zm-27.45-12.09c0-.23-.2-.45-.43-.45-.26 0-.59.43-.52.79.02.14.23.32.38.36.23.05.58-.4.57-.7Zm34.99-7.27.1-.09c-.38-.57-.62-1.25-1.17-1.71l-.12.08Zm-2.49-11.1 1.1.28c.04 0 .08 0 .12-.02l-.37-.65Zm-29.08-2.2c-.24-.43-.89-.69-1.4-.54Zm29 20.8-1-1.04c.15.53.53.83 1 1.04Zm-4.97-20.57h.07v-1.13h-.07Zm0 0"/></g><g clip-path="url(#b)"><path fill="#0c8841" d="M106.13 166.88c.96.26 1.94.47 2.88.8 2.12.74 4.22 1.54 6.33 2.32.08.02.18.02.25.07.14.08.28.16.38.29.04.05-.02.28-.07.3-.15.05-.34.08-.48.03-1.15-.45-2.29-.96-3.46-1.37-1.65-.58-3.33-1.1-5.01-1.63-.29-.1-.6-.11-.9-.15-.2-.04-.42-.07-.4-.33.02-.27.26-.24.45-.24Zm0 0"/></g><path d="M18 87.68v24.97h15.8v-4.25H22.3v-6.11h8.64v-4.3H22.3v-6.03h11.5v-4.28ZM57.7 100.62v12.03h4.26V87.29l-12.8 17.92L36.3 87.3v25.36h4.25v-12.06l8.61 11.95ZM64.49 112.65h4.3l-.05-9.67h5.05a9.1 9.1 0 0 0 5.96-2.13 7.3 7.3 0 0 0 2.61-5.55c0-1.03-.22-2.01-.67-2.96a8.55 8.55 0 0 0-1.94-2.54 9.38 9.38 0 0 0-5.96-2.12h-9.3Zm4.25-13.97v-6.72h5.05a4.9 4.9 0 0 1 3.07.99c.8.68 1.22 1.45 1.22 2.35 0 .91-.39 1.68-1.14 2.29a4.5 4.5 0 0 1-3.15 1.09ZM83.84 87.68v24.97h15.8v-4.25h-11.5V87.68ZM123.93 106.54a12.33 12.33 0 0 0 1.7-6.38c0-2.28-.56-4.36-1.7-6.34a12.45 12.45 0 0 0-10.94-6.38c-2.28 0-4.4.58-6.33 1.7a12.36 12.36 0 0 0-4.6 4.65 12.34 12.34 0 0 0-1.71 6.37c0 2.29.58 4.41 1.72 6.38a12.28 12.28 0 0 0 4.62 4.62 12.15 12.15 0 0 0 6.3 1.72c2.28 0 4.36-.53 6.3-1.67a12.8 12.8 0 0 0 4.64-4.67Zm-3.7-10.63a8.7 8.7 0 0 1 0 8.5 8.3 8.3 0 0 1-14.45-.05 8.05 8.05 0 0 1-1.14-4.2c0-1.51.35-2.92 1.1-4.21a8.76 8.76 0 0 1 3.08-3.11 7.86 7.86 0 0 1 4.17-1.14 8.43 8.43 0 0 1 7.25 4.22ZM130.33 87.68h-5.09l10.4 16.62v8.35h4.26v-8.35l10.51-16.62h-5.12l-7.52 12.1ZM172.88 100.62v12.03h4.25V87.29l-12.8 17.92-12.85-17.92v25.36h4.25v-12.06l8.6 11.95ZM179.66 87.68v24.97h15.8v-4.25h-11.5v-6.11h8.64v-4.3h-8.64v-6.03h11.5v-4.28ZM202.21 112.65V97.8l15.41 15.41V87.68h-4.25v15.03l-15.4-15.42v25.36ZM218.87 87.68v4.28h7.48v20.69h4.25V91.96h7.52v-4.28Zm0 0" fill="#f38e20"/><path d="M22.36 129.11c2.36 0 4.19-1.42 4.64-3.6h-2.1a2.57 2.57 0 0 1-2.5 1.68c-1.54 0-2.62-1.12-2.62-2.73 0-1.63 1.1-2.74 2.63-2.74 1.14 0 2.08.61 2.42 1.6h2.11a4.54 4.54 0 0 0-4.6-3.54 4.46 4.46 0 0 0-4.63 4.68 4.46 4.46 0 0 0 4.65 4.65ZM40.5 129.11c2.8 0 4.8-1.92 4.8-4.65 0-2.75-2-4.68-4.8-4.68s-4.79 1.93-4.79 4.68c0 2.73 1.99 4.65 4.8 4.65Zm-2.71-4.65a2.6 2.6 0 0 1 2.72-2.74c1.6 0 2.7 1.11 2.7 2.74 0 1.6-1.1 2.73-2.7 2.73a2.61 2.61 0 0 1-2.72-2.73ZM54.58 128.94h2.03v-5.5l3.96 5.5h1.73v-8.98h-2.03v5.46l-3.95-5.46h-1.74ZM74.27 128.94h2.03v-7.06h2.86v-1.92h-7.74v1.92h2.85ZM88.27 128.94h2.05v-2.8h1.34l1.6 2.8h2.36l-1.86-3.12c1.07-.47 1.71-1.44 1.71-2.77 0-1.9-1.3-3.1-3.37-3.1h-3.83Zm2.02-4.52v-2.71h1.54c1 0 1.57.48 1.57 1.36 0 .87-.57 1.35-1.57 1.35ZM103.99 128.94h2.19l.6-1.55h3.57l.6 1.55h2.18l-3.56-8.98h-2Zm3.31-3.16 1.27-3.28 1.26 3.28ZM126.1 129.11c2.36 0 4.19-1.42 4.64-3.6h-2.1a2.57 2.57 0 0 1-2.5 1.68c-1.54 0-2.62-1.12-2.62-2.73 0-1.63 1.1-2.74 2.63-2.74 1.14 0 2.08.61 2.42 1.6h2.1a4.54 4.54 0 0 0-4.59-3.54 4.46 4.46 0 0 0-4.64 4.68 4.46 4.46 0 0 0 4.66 4.65ZM142.14 128.94h2.03v-7.06h2.86v-1.92h-7.74v1.92h2.85ZM159.26 129.11c2.15 0 3.44-1 3.44-2.7 0-1.42-.94-2.27-3.15-2.8-1.38-.31-1.86-.65-1.86-1.22s.53-.93 1.39-.93c.93 0 1.5.48 1.5 1.28h1.97c0-1.8-1.36-2.96-3.5-2.96-2.07 0-3.35 1.02-3.35 2.66 0 1.45.99 2.33 3.1 2.78 1.26.27 1.84.64 1.84 1.27 0 .6-.53.95-1.4.95-.98 0-1.62-.5-1.62-1.36h-2c0 1.86 1.4 3.03 3.64 3.03Zm0 0" fill="#0c8841"/></svg>