<?xml version="1.0" encoding="UTF-8"?>
<svg xmlns="http://www.w3.org/2000/svg" xmlns:xlink="http://www.w3.org/1999/xlink" width="1500px" height="450px" viewBox="0 0 1500 450" version="1.1">
<defs>
<clipPath id="clip1">
  <path d="M 644 227.636719 L 1315.757812 227.636719 L 1315.757812 325 L 644 325 Z M 644 227.636719 "/>
</clipPath>
<clipPath id="clip2">
  <path d="M 640 303 L 703 303 L 703 310.910156 L 640 310.910156 Z M 640 303 "/>
</clipPath>
</defs>
<g id="surface1">
<g clip-path="url(#clip1)" clip-rule="nonzero">
<path style=" stroke:none;fill-rule:nonzero;fill:rgb(4.705882%,53.333333%,25.490196%);fill-opacity:1;" d="M 990.910156 318 C 993.332031 317.78125 995.03125 318.144531 996.667969 318.492188 C 1000.789062 319.382812 1005.089844 320.128906 1009.9375 320.582031 C 1012.96875 320.871094 1016 320.910156 1019.03125 320.527344 C 1021.636719 320.164062 1024.363281 319.855469 1026.910156 319.453125 C 1030.789062 318.871094 1032.605469 317.054688 1029.9375 316.035156 C 1026.425781 314.636719 1022.667969 313.328125 1018.605469 312.074219 C 1010.746094 309.671875 1002.046875 307.535156 992.667969 305.691406 C 985.9375 304.289062 979.03125 302.980469 972.183594 301.636719 C 971.078125 301.425781 970.109375 301.152344 969.332031 300.835938 C 968.84375 300.59375 968.753906 300.300781 969.089844 300.035156 C 969.394531 299.855469 970.605469 299.710938 971.394531 299.726562 C 972.546875 299.726562 973.695312 299.871094 974.789062 299.980469 C 983.21875 300.992188 991.070312 302.390625 998.0625 304.128906 C 1009.105469 306.695312 1020.75 309.023438 1032.910156 311.089844 C 1037.394531 311.855469 1042 312.546875 1047.394531 312.507812 C 1055.273438 312.453125 1060.484375 310.308594 1057.574219 308.109375 C 1056.378906 307.277344 1054.742188 306.511719 1052.726562 305.835938 C 1046.148438 303.6875 1038.601562 301.828125 1030.304688 300.308594 C 1020.425781 298.308594 1010.121094 296.492188 1001.210938 294.089844 C 999.273438 293.5625 996.667969 293.273438 994.363281 292.910156 C 991.210938 292.398438 987.9375 291.980469 984.910156 291.4375 C 981.9375 290.890625 979.453125 290.183594 978.667969 289.144531 C 978.363281 288.761719 978.425781 288.382812 978.847656 288 C 979.453125 287.417969 981.695312 287.253906 983.394531 287.601562 C 984.183594 287.761719 984.726562 287.980469 985.394531 288.183594 C 991.574219 289.855469 997.453125 291.636719 1003.878906 293.183594 C 1010.789062 294.835938 1018.121094 296.328125 1025.394531 297.835938 C 1034.789062 299.777344 1044.324219 301.660156 1054 303.472656 C 1060.453125 304.703125 1067.929688 305.363281 1075.574219 305.382812 C 1083.574219 305.382812 1091.332031 303.507812 1093.152344 301.164062 C 1093.757812 300.328125 1092.96875 299.617188 1091.574219 298.910156 C 1086.671875 296.410156 1080.0625 294.246094 1072.183594 292.5625 C 1066.96875 291.472656 1061.574219 290.472656 1056.425781 289.382812 C 1049.878906 288.035156 1043.515625 286.636719 1036.96875 285.289062 C 1028.726562 283.617188 1020.304688 282.019531 1012.121094 280.34375 C 1005.609375 279.109375 1000.066406 277.46875 995.878906 275.527344 C 995 275.085938 994.25 274.625 993.636719 274.144531 C 992.96875 273.65625 992.726562 273.128906 994.304688 272.726562 C 995.515625 272.417969 997.9375 272.4375 999.394531 272.890625 C 1001.394531 273.507812 1003.152344 274.164062 1004.726562 274.855469 C 1006.726562 275.691406 1008.363281 276.601562 1010.183594 277.472656 C 1013.816406 279.183594 1018.546875 280.5625 1024.726562 281.398438 C 1037.273438 283.144531 1048.183594 285.636719 1059.03125 288.164062 C 1065.695312 289.746094 1073.394531 290.800781 1081.089844 291.816406 C 1089.273438 292.910156 1097.089844 294.144531 1104.183594 295.816406 C 1107.03125 296.492188 1110.546875 296.964844 1114 297.273438 C 1119.757812 297.816406 1126.484375 296.761719 1128.910156 295.089844 C 1130.425781 294.074219 1129.089844 293.183594 1127.394531 292.308594 C 1127.230469 292.21875 1126.941406 292.152344 1126.605469 292.128906 C 1124.183594 291.964844 1123.210938 291.398438 1122.183594 290.800781 C 1121.40625 290.347656 1120.449219 289.925781 1119.332031 289.546875 C 1105.273438 284.910156 1088.847656 281.074219 1072.363281 277.273438 C 1065.695312 275.746094 1058.96875 274.253906 1052.121094 272.816406 C 1044.730469 271.175781 1038.035156 269.273438 1032.183594 267.144531 C 1023.859375 264.433594 1014.59375 261.996094 1004.546875 259.871094 C 1003.152344 259.5625 1000.910156 259.546875 999.695312 259.183594 C 997.394531 258.546875 994.605469 258.398438 991.816406 258.164062 C 990.371094 258.054688 988.882812 258.007812 987.394531 258.019531 C 985.089844 258.019531 984.546875 257.871094 984.847656 257.199219 C 976.0625 257.21875 966.96875 257.800781 958.304688 256.507812 C 956 257.382812 953.332031 258.289062 951.152344 259.289062 C 943.636719 262.671875 932.667969 264.363281 919.9375 265.238281 L 892.546875 267.164062 C 888.605469 267.4375 884.789062 267.238281 881.03125 266.855469 C 876.605469 266.398438 875.089844 265.398438 876.910156 264.089844 C 877.394531 263.710938 878.0625 263.34375 878.789062 263 C 884.667969 260.328125 890.667969 257.726562 896.425781 255.035156 C 900.519531 253.171875 904.382812 251.261719 908 249.308594 C 914.792969 245.519531 926.617188 242.769531 940.546875 241.746094 C 952.546875 240.746094 964.789062 239.964844 976.910156 239.164062 C 984.484375 238.671875 992.0625 238.910156 999.757812 239.164062 C 1014.910156 239.691406 1029.453125 240.925781 1043.816406 242.4375 C 1049.273438 242.980469 1054.425781 243.855469 1059.878906 244.4375 C 1063.636719 244.800781 1067.695312 245.074219 1071.636719 245.074219 C 1079.757812 245.128906 1087.878906 244.964844 1095.9375 244.871094 C 1096.726562 244.855469 1097.757812 244.636719 1098.183594 244.4375 C 1099.878906 243.601562 1102.0625 242.925781 1104.847656 242.4375 C 1112.988281 240.945312 1122.339844 240.152344 1131.878906 240.144531 C 1133.636719 240.144531 1135.273438 240.238281 1136.910156 240.417969 C 1139.394531 240.65625 1140.363281 241.328125 1138.726562 241.964844 C 1137.515625 242.472656 1135.695312 242.980469 1133.757812 243.199219 C 1129.515625 243.671875 1125.152344 243.980469 1120.847656 244.308594 L 1101.089844 245.800781 C 1100.605469 245.835938 1100 246.089844 1100 246.253906 C 1099.9375 247.089844 1099.878906 247.925781 1100.121094 248.746094 L 1105.089844 262.746094 C 1107.816406 270.5625 1113.089844 278.253906 1121.03125 285.78125 C 1122.183594 286.871094 1122.726562 288.019531 1124.183594 289.074219 C 1125.152344 289.761719 1127.210938 290.34375 1128.789062 290.945312 C 1129.03125 291 1129.695312 291 1130.121094 290.964844 C 1141.695312 290.128906 1153.574219 290.144531 1165.332031 290.035156 C 1169.394531 290 1173.453125 290.035156 1177.816406 290.035156 C 1177.273438 288.636719 1176.910156 287.363281 1176.304688 286.089844 C 1173.878906 281.21875 1171.9375 276.328125 1168.847656 271.492188 C 1165.9375 266.890625 1162 262.382812 1158.304688 257.855469 C 1154.667969 253.253906 1150.667969 248.671875 1146.96875 244.089844 C 1145.457031 242.601562 1145.066406 241.03125 1145.816406 239.492188 C 1146.667969 238.308594 1148.910156 237.492188 1152.96875 237.308594 C 1158.910156 237.019531 1165.03125 236.890625 1170.96875 236.582031 C 1189.152344 235.636719 1207.273438 234.710938 1225.332031 233.671875 C 1243.695312 232.582031 1261.574219 230.910156 1279.515625 229.308594 C 1285.878906 228.761719 1292.242188 228.273438 1298.667969 227.761719 L 1299.757812 227.691406 C 1300.96875 227.636719 1302.183594 227.671875 1302.363281 228.109375 C 1302.667969 228.546875 1301.574219 228.636719 1300.546875 228.710938 L 1277.210938 230.617188 C 1262.183594 231.871094 1247.210938 233.253906 1232.0625 234.308594 C 1207.574219 236.035156 1182.789062 237.398438 1157.757812 238.164062 L 1155.816406 238.253906 C 1150.667969 238.492188 1149.273438 238.945312 1149.089844 240.507812 C 1148.910156 242.183594 1150.425781 243.746094 1151.757812 245.34375 C 1156.605469 251.183594 1161.273438 257.035156 1166.121094 262.855469 C 1170.847656 268.5625 1174.96875 274.308594 1177.453125 280.164062 C 1179.089844 283.980469 1180.425781 287.816406 1182.0625 291.65625 C 1183.273438 294.507812 1184.789062 297.363281 1186.121094 300.238281 C 1186.304688 300.617188 1186.789062 300.78125 1188.183594 300.671875 C 1194 300.289062 1199.757812 299.835938 1205.636719 299.582031 C 1215.816406 299.128906 1226 298.761719 1236.242188 298.382812 C 1255.03125 297.65625 1273.03125 296.144531 1290.242188 293.800781 C 1296.0625 293.019531 1302.304688 292.492188 1308.363281 291.925781 C 1310.242188 291.746094 1312.425781 291.746094 1314.425781 291.800781 C 1315.210938 291.816406 1316.363281 292.074219 1316.667969 292.308594 C 1317.273438 292.746094 1316.0625 293.035156 1314.847656 293.144531 C 1313.878906 293.253906 1312.242188 293.308594 1311.816406 293.144531 C 1310.96875 292.78125 1310 292.871094 1309.089844 292.964844 C 1303.152344 293.5625 1296.96875 294.074219 1291.210938 294.855469 C 1271.847656 297.445312 1251.21875 299.082031 1230.121094 299.710938 C 1216.789062 300.144531 1203.332031 300.582031 1190.304688 301.65625 L 1189.695312 301.691406 C 1184.726562 301.980469 1183.210938 301.691406 1182.425781 300.183594 L 1178.363281 291.546875 C 1178.183594 291.109375 1177.574219 291 1176.242188 291 C 1168.910156 291.074219 1161.453125 291.074219 1154.121094 291.238281 C 1146.96875 291.398438 1139.816406 291.691406 1132.667969 291.925781 C 1132.175781 291.957031 1131.691406 291.992188 1131.210938 292.035156 L 1132 292.601562 C 1134.425781 294.417969 1132.789062 296.128906 1127.574219 297.34375 C 1121.152344 298.835938 1114.425781 298.835938 1107.574219 297.761719 C 1105.117188 297.375 1102.785156 296.917969 1100.605469 296.398438 C 1094.304688 294.855469 1087.03125 293.855469 1079.695312 292.816406 C 1082.605469 293.78125 1085.636719 294.671875 1088.304688 295.671875 C 1090.726562 296.582031 1092.96875 297.582031 1095.089844 298.582031 C 1097.574219 299.761719 1097.453125 301.019531 1095.695312 302.273438 C 1091.925781 305.253906 1081.5 306.972656 1071.089844 306.328125 C 1066.484375 306.144531 1062.0625 305.617188 1057.574219 305.238281 L 1055.273438 304.964844 C 1056.546875 305.453125 1057.515625 305.800781 1058.304688 306.164062 C 1061.152344 307.382812 1062.789062 308.710938 1061.816406 310.199219 C 1060.605469 312.089844 1054.183594 313.5625 1047.394531 313.601562 C 1041.574219 313.617188 1036.484375 312.964844 1031.695312 312.128906 C 1025.210938 311 1018.847656 309.761719 1012.425781 308.582031 C 1011.9375 308.492188 1011.394531 308.382812 1010.726562 308.34375 C 1012.96875 308.964844 1015.332031 309.5625 1017.394531 310.21875 C 1022.304688 311.746094 1027.210938 313.273438 1031.9375 314.871094 C 1037.816406 316.890625 1033.636719 320.054688 1026.667969 320.710938 C 1024.605469 320.890625 1022.726562 321.238281 1020.667969 321.492188 C 1016.605469 322.035156 1012.484375 322.035156 1008.363281 321.546875 C 1005.089844 321.183594 1001.9375 320.746094 998.667969 320.34375 C 995.757812 323.074219 982.726562 325.472656 970.304688 324.472656 C 962.425781 323.835938 955.757812 322.65625 950.484375 320.78125 C 948.363281 320.035156 946.363281 319.273438 944.242188 318.492188 C 943.9375 318.5625 943.515625 318.636719 943.152344 318.746094 C 940.847656 319.34375 938.121094 319.65625 935.152344 319.492188 C 927.203125 319.183594 919.917969 317.996094 914.726562 316.164062 C 912.769531 315.328125 911.203125 314.417969 910.0625 313.453125 C 908.847656 312.601562 909.089844 311.671875 910.242188 310.65625 C 909.210938 310.980469 908.425781 311.199219 907.816406 311.453125 C 904.789062 312.417969 901.089844 312.746094 896.847656 312.546875 C 890.605469 312.253906 884.726562 311.691406 879.636719 310.546875 C 871.152344 308.671875 864.605469 305.453125 869.152344 301.472656 L 870.121094 300.5625 L 861.152344 302.5625 C 853.683594 304.242188 844.464844 305.066406 835.152344 304.890625 C 832.847656 304.835938 830.605469 304.691406 828.484375 304.453125 C 820.484375 303.636719 816.726562 301.5625 818.484375 299.109375 C 819.695312 297.507812 822.304688 296.109375 825.453125 294.816406 L 826.667969 294.363281 L 795.574219 289.945312 C 795.816406 291.78125 790.363281 293.144531 785.273438 292.453125 L 785.03125 293.871094 L 785.03125 294.34375 C 784.96875 295.964844 783.816406 296.636719 776.910156 296.710938 C 768.484375 296.78125 760.363281 296.199219 752.183594 295.816406 C 746.878906 295.628906 741.695312 295.214844 736.789062 294.582031 C 732.847656 294.035156 729.332031 293.308594 726.183594 292.4375 L 725.453125 292.253906 C 725.3125 292.222656 725.144531 292.203125 724.96875 292.199219 C 719.273438 296.019531 711.757812 299.601562 708.847656 303.761719 C 707.816406 305.289062 708 306.78125 710.0625 308.253906 C 711.453125 309.328125 713.878906 310.074219 717.453125 310.492188 C 727.152344 311.671875 736.0625 311.035156 744.425781 309.34375 C 754.363281 307.3125 763.089844 304.792969 770.242188 301.890625 C 773.089844 300.746094 776.121094 299.65625 779.210938 298.5625 C 779.695312 298.382812 780.847656 298.382812 781.636719 298.308594 C 781.9375 298.5625 782.0625 298.835938 782.242188 299.109375 C 782.242188 299.199219 781.816406 299.308594 781.636719 299.398438 C 776 301.453125 770.546875 303.546875 764.726562 305.546875 C 757.917969 307.898438 749.667969 309.835938 740.425781 311.253906 C 733.152344 312.382812 725.394531 312.453125 717.515625 311.671875 C 709.816406 310.910156 706.363281 309.164062 704.96875 306.925781 C 703.988281 304.914062 704.933594 302.859375 707.695312 301 C 710.910156 298.5625 714.789062 296.199219 718.425781 293.800781 L 720.363281 292.5625 C 721.574219 291.816406 723.152344 291.089844 720.96875 290.238281 C 720.484375 290 720.484375 289.617188 720.605469 289.308594 C 720.789062 288.65625 722.425781 288.328125 724.667969 288.382812 C 726.726562 288.417969 728.183594 288.835938 728.121094 289.453125 C 728 289.835938 727.695312 290.21875 727.152344 290.582031 C 726.726562 290.910156 726.96875 291.128906 727.757812 291.363281 C 732.710938 292.953125 739.234375 294.023438 746.363281 294.417969 C 754.183594 294.910156 762.121094 295.21875 770 295.546875 C 772.726562 295.671875 775.515625 295.636719 778.304688 295.601562 C 780.789062 295.5625 781.273438 295.34375 781.394531 294.582031 L 782 291.4375 C 782 291.253906 782 291.074219 781.878906 290.910156 C 780.101562 288.796875 779.609375 286.601562 780.425781 284.4375 C 782.242188 277.054688 788.425781 269.964844 797.636719 263.109375 C 801.394531 260.585938 806.070312 258.195312 811.574219 255.980469 C 812.847656 255.4375 813.757812 254.835938 814.96875 254.183594 C 811.453125 253.855469 808.304688 253.65625 805.515625 253.253906 C 802.789062 252.855469 800.425781 252.238281 797.636719 251.671875 L 789.757812 254.671875 C 775.878906 260 765.332031 265.910156 754.847656 271.835938 C 747.582031 276.050781 741.007812 280.371094 735.152344 284.78125 C 734.363281 285.363281 733.332031 285.925781 732.363281 286.492188 C 731.816406 286.816406 730.910156 287.035156 729.636719 286.855469 C 728.242188 286.636719 728.847656 286.308594 729.332031 285.980469 C 732.546875 283.746094 735.394531 281.472656 738.910156 279.273438 C 744.726562 275.617188 750.910156 272 756.96875 268.398438 C 764.050781 264.148438 772.261719 260.074219 781.515625 256.21875 C 785.574219 254.527344 790 252.925781 794.183594 251.273438 C 797.515625 249.964844 797.210938 249.546875 791.757812 249.164062 C 785.816406 248.710938 779.757812 248.453125 773.757812 248.054688 C 763.453125 247.363281 753.152344 246.636719 742.96875 245.871094 C 730 244.910156 716.667969 244.546875 703.453125 244.109375 C 688.988281 243.722656 674.707031 242.867188 660.847656 241.5625 C 657.574219 241.238281 654.484375 240.816406 651.273438 240.417969 C 649.816406 240.238281 648.667969 240.199219 648.0625 240.78125 C 647.695312 241.109375 646.726562 241.382812 645.636719 241.164062 C 645.03125 241.035156 644.726562 240.617188 644.910156 240.363281 C 645.574219 239.398438 648 239 651.152344 239.273438 C 652.726562 239.417969 654.304688 239.601562 655.757812 239.816406 C 666.183594 241.199219 677.273438 241.871094 688.425781 242.382812 C 698.605469 242.855469 708.910156 243.199219 719.210938 243.546875 C 730.605469 243.910156 741.636719 244.710938 752.789062 245.472656 C 765.152344 246.328125 777.574219 247.074219 789.9375 247.871094 C 791.636719 247.980469 793.394531 248.128906 795.03125 248.328125 C 799.03125 248.800781 800.121094 249.308594 800.0625 250.417969 C 803.394531 250.582031 806.726562 250.691406 809.9375 250.925781 C 813.332031 251.183594 815.878906 251.835938 817.332031 252.816406 C 817.636719 253.019531 818.183594 253.144531 818.910156 253.183594 C 827.394531 253.507812 835.878906 253.835938 844.363281 254.089844 C 850.425781 254.273438 856.121094 253.691406 861.9375 253.273438 C 873.816406 252.417969 885.757812 251.601562 897.695312 250.78125 C 898.667969 250.710938 899.695312 250.65625 900.667969 250.710938 C 901.273438 250.746094 902.242188 251 902.183594 251.128906 C 902.035156 251.355469 901.542969 251.550781 900.847656 251.65625 C 899.515625 251.78125 898.0625 251.78125 896.726562 251.871094 C 885.394531 252.691406 873.9375 253.398438 862.789062 254.363281 C 851.878906 255.273438 841.210938 255.363281 830.242188 254.726562 C 826.304688 254.507812 822.363281 254.398438 819.03125 254.273438 C 817.152344 255.238281 815.816406 256.128906 813.878906 256.890625 C 804.304688 260.964844 797.242188 265.523438 793.03125 270.34375 C 788.5625 274.789062 785.597656 279.359375 784.183594 283.980469 C 783.695312 285.636719 784.121094 287.328125 784.121094 289.183594 C 785.394531 288.691406 787.210938 288.636719 787.394531 288.019531 C 787.453125 287.617188 788.847656 287.582031 789.9375 287.746094 C 793.574219 288.308594 797.210938 288.910156 800.96875 289.453125 C 809.210938 290.65625 817.453125 291.855469 825.816406 293 C 836.304688 294.417969 846.96875 295.726562 857.394531 297.199219 C 862.546875 297.925781 867.757812 298.363281 873.332031 298.472656 C 874.789062 298.507812 876.304688 298.527344 877.636719 298.636719 C 879.757812 298.816406 881.152344 298.65625 882.363281 298.089844 C 883.636719 297.507812 885.273438 297 886.847656 296.507812 C 890.484375 295.308594 896.027344 294.804688 901.273438 295.199219 C 913.394531 295.925781 922.304688 299.617188 920.789062 303.273438 C 920.363281 304.238281 919.695312 305.183594 919.089844 306.199219 L 923.757812 304.671875 C 926.0625 303.945312 928.363281 303.144531 930.847656 302.453125 C 934.128906 301.503906 938.546875 300.988281 943.109375 301.027344 C 947.671875 301.0625 951.988281 301.652344 955.089844 302.65625 C 960.269531 304.128906 963.316406 306.152344 963.574219 308.289062 C 968.425781 307.507812 972.910156 307.964844 977.394531 308.507812 C 980.242188 308.855469 982.546875 309.417969 984.183594 310.183594 C 989.6875 312.429688 992.078125 315.234375 990.847656 318 Z M 1096 246.183594 C 1091.9375 246.183594 1087.695312 246.109375 1083.515625 246.183594 C 1071.878906 246.417969 1060.726562 246.035156 1050.0625 244.472656 C 1034.695312 242.363281 1018.34375 240.96875 1001.574219 240.34375 C 994.757812 239.929688 987.757812 239.84375 980.847656 240.089844 C 966.242188 240.816406 951.878906 241.835938 937.816406 243.183594 C 927.292969 244.058594 918.355469 246.148438 912.96875 249 C 906.726562 252.453125 899.332031 255.691406 892.363281 259 C 889.332031 260.453125 885.9375 261.800781 882.726562 263.21875 C 881.816406 263.617188 880.96875 264.035156 880.304688 264.492188 C 879.210938 265.183594 879.757812 265.546875 882.183594 265.816406 C 885.332031 266.183594 888.667969 266.328125 891.878906 266.109375 C 903.03125 265.328125 914.121094 264.546875 925.089844 263.636719 C 931.152344 263.144531 937.210938 262.472656 941.453125 260.980469 C 946.304688 259.308594 950.789062 257.527344 955.394531 255.761719 C 955.765625 255.605469 955.9375 255.410156 955.878906 255.21875 C 955.453125 253.980469 954.789062 252.726562 954.546875 251.472656 C 954.425781 250.910156 954.910156 250.328125 955.453125 249.78125 C 955.757812 249.546875 956.789062 249.238281 957.636719 249.238281 C 958.425781 249.199219 959.515625 249.417969 960.304688 249.601562 C 960.789062 249.746094 961.089844 250.019531 961.332031 250.238281 C 963.152344 251.78125 962.96875 253.34375 961.210938 254.890625 C 960.484375 255.546875 960.605469 255.691406 962.726562 255.925781 C 963.394531 256.019531 964.121094 256.074219 964.847656 256.089844 C 970.242188 256.128906 975.636719 256.199219 981.03125 256.183594 C 985.484375 256.144531 989.804688 255.714844 993.453125 254.945312 C 994.304688 254.761719 994.910156 254.453125 995.394531 254.183594 C 997.210938 253.144531 998.789062 252.074219 1000.667969 251.074219 C 1001.332031 250.671875 1002.546875 250.34375 1003.757812 250.089844 C 1004.484375 249.925781 1005.9375 249.855469 1006.605469 249.964844 C 1007.332031 250.074219 1007.695312 250.472656 1007.816406 250.746094 C 1007.816406 251.019531 1007.453125 251.289062 1007.152344 251.546875 C 1005.332031 252.871094 1002.726562 254.019531 999.273438 255 C 997.515625 255.472656 997.453125 255.816406 998.605469 256.398438 L 1001.03125 257.746094 C 1001.394531 257.925781 1001.816406 258.128906 1002.363281 258.238281 C 1010.546875 259.617188 1017.515625 261.472656 1024.484375 263.328125 C 1029.9375 264.78125 1034.789062 266.417969 1039.695312 268.054688 C 1046.0625 270.199219 1053.816406 271.746094 1061.332031 273.4375 C 1081.03125 277.871094 1100.96875 282.273438 1118.183594 287.617188 L 1119.394531 287.871094 C 1112.054688 281.101562 1106.660156 274.15625 1103.273438 267.109375 C 1100.425781 260.089844 1097.695312 253.089844 1096 246.183594 Z M 946.304688 317.65625 L 952.183594 319.746094 C 956.921875 321.570312 963.589844 322.859375 971.089844 323.398438 C 978.121094 323.925781 984.425781 323.492188 989.878906 322.074219 C 991.695312 321.617188 993.210938 321.019531 994.546875 320.417969 C 995.03125 320.21875 995.03125 319.710938 994.546875 319.5625 C 993.816406 319.34375 992.425781 319.289062 991.332031 319.273438 C 989.757812 319.21875 989.515625 319.671875 988.847656 319.980469 C 987.878906 320.453125 986.363281 320.582031 985.210938 320.34375 C 984 320.109375 983.878906 319.582031 984.847656 319.183594 C 985.03125 319.089844 985.332031 319.035156 985.453125 318.945312 C 986.0625 318.671875 986.726562 318.398438 986.96875 318.089844 C 988.210938 315.925781 986.925781 313.695312 983.332031 311.78125 C 981.007812 310.277344 976.273438 309.234375 970.789062 309.019531 C 967.273438 308.835938 965.152344 309.109375 963.152344 310.109375 C 961.515625 310.855469 961.03125 311.65625 963.152344 312.453125 C 963.757812 312.691406 964.304688 312.925781 964.726562 313.183594 C 967.210938 314.5625 967.757812 316 965.9375 317.492188 C 964.183594 318.945312 960.183594 319.417969 955.453125 318.761719 C 951.574219 318.21875 949.9375 317.273438 949.636719 315.890625 Z M 884.726562 298.890625 L 884.96875 299.019531 L 885.878906 299.128906 C 894.667969 299.855469 900.425781 301.726562 905.515625 303.855469 C 906.910156 304.4375 907.332031 305.089844 906.484375 305.761719 C 904.363281 307.453125 897.816406 308.417969 892.242188 307.761719 C 888.726562 307.363281 885.574219 306.761719 882.242188 306.21875 C 876.96875 305.308594 875.210938 303.925781 876.425781 302.183594 C 876.96875 301.382812 877.757812 300.601562 878.484375 299.761719 L 875.453125 299.636719 C 875.03125 299.910156 874.605469 300.109375 874.363281 300.328125 C 872.304688 301.746094 870.425781 303.238281 871.332031 304.800781 C 872.726562 307.3125 878.304688 309.4375 886.121094 310.4375 C 889.574219 310.910156 893.394531 311.164062 897.03125 311.453125 C 900.242188 311.691406 903.089844 311.417969 905.273438 310.65625 C 906.605469 310.199219 907.816406 309.691406 908.910156 309.183594 C 911.695312 307.726562 915.152344 306.398438 916.425781 304.710938 C 918.667969 301.726562 916.425781 299.21875 908.304688 297.289062 C 903.394531 296.144531 896.605469 295.835938 892.183594 296.601562 C 888.96875 297.183594 887.03125 298.089844 884.726562 298.890625 Z M 868.183594 299.527344 C 864.910156 299.183594 861.636719 298.925781 858.546875 298.527344 C 849.695312 297.363281 840.910156 296.164062 832.121094 294.945312 C 830.847656 294.761719 830 294.761719 829.089844 295.128906 C 825.9375 296.363281 823.273438 297.671875 822.0625 299.199219 C 820.425781 301.308594 823.453125 302.855469 830.304688 303.507812 C 834.910156 303.964844 839.574219 303.890625 844.183594 303.636719 C 853.878906 303.109375 861.210938 301.363281 868.183594 299.527344 Z M 923.453125 306.417969 C 918.964844 307.753906 915.582031 309.382812 913.574219 311.183594 C 912.96875 311.726562 912.910156 312.289062 913.332031 312.855469 C 914.667969 314.65625 917.878906 316.128906 923.332031 317.019531 C 926.363281 317.492188 929.636719 317.925781 932.910156 318.253906 C 937.03125 318.691406 939.9375 318.4375 942.425781 317.34375 C 947.375 315.257812 950.367188 312.808594 951.089844 310.253906 C 951.089844 310.164062 951.089844 310.074219 950.96875 310 C 949.152344 310.816406 947.394531 311.671875 945.453125 312.472656 C 943.9375 313.054688 941.816406 313.199219 939.515625 312.964844 C 929.332031 311.945312 923.03125 308.710938 923.453125 306.417969 Z M 895.273438 306.925781 C 898.605469 306.890625 900.546875 306.4375 902.242188 305.800781 C 903.453125 305.34375 903.695312 304.871094 902.363281 304.398438 C 900.425781 303.671875 898.484375 302.945312 896.425781 302.273438 C 893.03125 301.183594 888.847656 300.453125 884 300.089844 C 883.089844 300.019531 882.242188 299.945312 881.9375 300.328125 C 881.210938 301.238281 880.242188 302.183594 879.757812 303.128906 C 879.574219 303.492188 879.757812 303.855469 880.242188 304.183594 C 880.789062 304.507812 881.574219 304.761719 882.667969 304.964844 C 885.695312 305.546875 888.847656 306.089844 892 306.601562 C 893.152344 306.78125 894.484375 306.855469 895.273438 306.925781 Z M 933.453125 305.109375 C 930.425781 305.109375 926.546875 306.472656 927.210938 307.289062 C 928.910156 309.398438 933.089844 310.925781 939.636719 311.835938 C 941.152344 312.054688 942.304688 311.964844 943.273438 311.582031 C 945.878906 310.617188 947.695312 309.5625 948.304688 308.34375 C 948.417969 308.027344 948.0625 307.707031 947.332031 307.472656 C 943.640625 306.46875 939.3125 305.695312 934.605469 305.199219 C 934.183594 305.144531 933.757812 305.128906 933.394531 305.109375 Z M 953.816406 312.527344 L 957.03125 310.945312 C 960.242188 309.417969 960.667969 307.816406 958.546875 306.128906 C 956.945312 305 954.546875 303.988281 951.515625 303.164062 C 944.726562 301.164062 934.667969 302.308594 930.847656 304.019531 C 932.605469 304.089844 934.789062 304.019531 936.425781 304.253906 C 940.789062 304.925781 945.210938 305.636719 949.152344 306.507812 C 952.96875 307.363281 954.96875 308.636719 954.667969 310.144531 C 954.546875 310.871094 954.183594 311.617188 953.816406 312.546875 Z M 1102.304688 244.617188 L 1104.726562 244.472656 C 1110.546875 244.019531 1116.363281 243.582031 1122.121094 243.109375 C 1125.757812 242.835938 1129.210938 242.527344 1132.726562 242.183594 C 1133.816406 242.054688 1134.726562 241.761719 1136 241.492188 C 1127.394531 240.582031 1107.757812 242.417969 1102.304688 244.617188 Z M 958.242188 312.253906 C 956.605469 313.382812 954.96875 314.363281 953.636719 315.382812 C 952.847656 315.980469 953.210938 316.617188 954.484375 317.144531 C 955.695312 317.691406 957.515625 318 959.695312 317.945312 C 961.878906 317.871094 962.484375 317.273438 962.96875 316.726562 C 963.210938 316.453125 963.332031 316.183594 963.394531 315.910156 C 963.636719 314.527344 961.273438 313.472656 958.242188 312.253906 Z M 791.878906 290.273438 C 791.878906 289.855469 790.667969 289.453125 789.273438 289.453125 C 787.695312 289.453125 785.695312 290.238281 786.121094 290.890625 C 786.242188 291.144531 787.515625 291.472656 788.425781 291.546875 C 789.816406 291.636719 791.9375 290.816406 791.878906 290.273438 Z M 1003.9375 277.054688 L 1004.546875 276.890625 C 1002.242188 275.855469 1000.789062 274.617188 997.453125 273.78125 L 996.726562 273.925781 Z M 988.847656 256.871094 L 995.515625 257.382812 C 995.757812 257.382812 996 257.382812 996.242188 257.34375 L 994 256.164062 Z M 812.605469 252.871094 C 811.152344 252.089844 807.210938 251.617188 804.121094 251.890625 Z M 988.363281 290.691406 L 982.304688 288.800781 C 983.210938 289.761719 985.515625 290.308594 988.363281 290.691406 Z M 958.242188 253.289062 L 958.667969 253.289062 L 958.667969 251.238281 L 958.242188 251.238281 Z M 958.242188 253.289062 "/>
</g>
<g clip-path="url(#clip2)" clip-rule="nonzero">
<path style=" stroke:none;fill-rule:nonzero;fill:rgb(4.705882%,53.333333%,25.490196%);fill-opacity:1;" d="M 643.210938 303.417969 C 649.03125 303.890625 654.96875 304.273438 660.667969 304.871094 C 673.515625 306.21875 686.242188 307.671875 699.03125 309.089844 C 699.515625 309.128906 700.121094 309.128906 700.546875 309.21875 C 701.394531 309.363281 702.242188 309.507812 702.847656 309.746094 C 703.089844 309.835938 702.726562 310.253906 702.425781 310.289062 C 701.515625 310.382812 700.363281 310.4375 699.515625 310.34375 C 692.546875 309.527344 685.636719 308.601562 678.546875 307.855469 C 668.546875 306.800781 658.363281 305.855469 648.183594 304.890625 C 646.425781 304.710938 644.546875 304.691406 642.726562 304.617188 C 641.515625 304.546875 640.183594 304.492188 640.304688 304.019531 C 640.425781 303.527344 641.878906 303.582031 643.03125 303.582031 Z M 643.210938 303.417969 "/>
</g>
<path style=" stroke:none;fill-rule:nonzero;fill:rgb(95.294118%,55.686275%,12.54902%);fill-opacity:1;" d="M 109.089844 159.417969 L 109.089844 204.816406 L 204.847656 204.816406 L 204.847656 197.089844 L 135.152344 197.089844 L 135.152344 185.980469 L 187.515625 185.980469 L 187.515625 178.164062 L 135.152344 178.164062 L 135.152344 167.199219 L 204.847656 167.199219 L 204.847656 159.417969 Z M 349.695312 182.945312 L 349.695312 204.816406 L 375.515625 204.816406 L 375.515625 158.710938 L 297.9375 191.289062 L 220 158.726562 L 220 204.835938 L 245.757812 204.835938 L 245.757812 182.910156 L 297.9375 204.636719 Z M 390.847656 204.816406 L 416.910156 204.816406 L 416.605469 187.238281 L 447.210938 187.238281 C 460.410156 187.285156 473.226562 185.910156 483.332031 183.363281 C 493.289062 180.859375 499.074219 177.171875 499.152344 173.273438 C 499.152344 171.398438 497.816406 169.617188 495.089844 167.890625 C 492.175781 166.144531 488.183594 164.578125 483.332031 163.273438 C 473.144531 160.773438 460.378906 159.410156 447.210938 159.417969 L 390.847656 159.417969 Z M 416.605469 179.417969 L 416.605469 167.199219 L 447.210938 167.199219 C 453.914062 167.152344 460.472656 167.789062 465.816406 169 C 470.667969 170.238281 473.210938 171.636719 473.210938 173.273438 C 473.210938 174.925781 470.847656 176.328125 466.304688 177.4375 C 461.019531 178.804688 454.1875 179.515625 447.210938 179.417969 Z M 508.121094 159.417969 L 508.121094 204.816406 L 603.878906 204.816406 L 603.878906 197.089844 L 534.183594 197.089844 L 534.183594 159.417969 Z M 751.089844 193.710938 C 757.976562 190.195312 761.539062 186.183594 761.394531 182.109375 C 761.394531 177.964844 758 174.183594 751.089844 170.582031 C 737.6875 163.378906 712.28125 158.933594 684.789062 158.980469 C 670.96875 158.980469 658.121094 160.035156 646.425781 162.074219 C 634.769531 164.089844 625.140625 167.007812 618.546875 170.527344 C 611.652344 174.035156 608.070312 178.039062 608.183594 182.109375 C 608.183594 186.273438 611.695312 190.128906 618.605469 193.710938 C 625.238281 197.214844 634.914062 200.117188 646.605469 202.109375 C 658.144531 204.175781 671.347656 205.257812 684.789062 205.238281 C 698.605469 205.238281 711.210938 204.273438 722.96875 202.199219 C 734.652344 200.152344 744.34375 197.226562 751.089844 193.710938 Z M 728.667969 174.382812 C 737.625 179.183594 737.625 185.035156 728.667969 189.835938 C 719.6875 194.5625 702.921875 197.472656 684.789062 197.453125 C 666.65625 197.433594 649.960938 194.488281 641.089844 189.746094 C 636.496094 187.4375 634.105469 184.796875 634.183594 182.109375 C 634.183594 179.363281 636.304688 176.800781 640.847656 174.453125 C 645.375 172.125 651.796875 170.179688 659.515625 168.800781 C 667.128906 167.414062 675.882812 166.695312 684.789062 166.726562 C 702.9375 166.761719 719.664062 169.683594 728.726562 174.398438 Z M 789.878906 159.417969 L 759.03125 159.417969 L 822.0625 189.636719 L 822.0625 204.816406 L 847.878906 204.816406 L 847.878906 189.636719 L 911.574219 159.417969 L 880.546875 159.417969 L 834.96875 181.417969 Z M 1047.757812 182.945312 L 1047.757812 204.816406 L 1073.515625 204.816406 L 1073.515625 158.710938 L 995.9375 191.289062 L 918.0625 158.710938 L 918.0625 204.816406 L 943.816406 204.816406 L 943.816406 182.890625 L 995.9375 204.617188 Z M 1088.847656 159.417969 L 1088.847656 204.816406 L 1184.605469 204.816406 L 1184.605469 197.089844 L 1114.910156 197.089844 L 1114.910156 185.980469 L 1167.273438 185.980469 L 1167.273438 178.164062 L 1114.910156 178.164062 L 1114.910156 167.199219 L 1184.605469 167.199219 L 1184.605469 159.417969 Z M 1225.515625 204.816406 L 1225.515625 177.816406 L 1318.910156 205.835938 L 1318.910156 159.417969 L 1293.152344 159.417969 L 1293.152344 186.746094 L 1199.816406 158.710938 L 1199.816406 204.816406 Z M 1326.484375 159.417969 L 1326.484375 167.199219 L 1371.816406 167.199219 L 1371.816406 204.816406 L 1397.574219 204.816406 L 1397.574219 167.199219 L 1443.152344 167.199219 L 1443.152344 159.417969 Z M 1326.484375 159.417969 "/>
<path style=" stroke:none;fill-rule:nonzero;fill:rgb(4.705882%,53.333333%,25.490196%);fill-opacity:1;" d="M 135.515625 234.746094 C 149.816406 234.746094 160.910156 232.164062 163.636719 228.199219 L 150.910156 228.199219 C 148.585938 230.09375 142.476562 231.324219 135.757812 231.253906 C 126.425781 231.253906 119.878906 229.21875 119.878906 226.289062 C 119.878906 223.328125 126.546875 221.308594 135.816406 221.308594 C 142.726562 221.308594 148.425781 222.417969 150.484375 224.21875 L 163.273438 224.21875 C 160.363281 220.339844 148.640625 217.632812 135.394531 217.78125 C 127.8125 217.691406 120.453125 218.5625 115.113281 220.179688 C 109.777344 221.800781 106.953125 224.015625 107.332031 226.289062 C 107.003906 228.5625 109.867188 230.769531 115.226562 232.378906 C 120.582031 233.984375 127.945312 234.84375 135.515625 234.746094 Z M 245.453125 234.746094 C 262.425781 234.746094 274.546875 231.253906 274.546875 226.289062 C 274.546875 221.289062 262.425781 217.78125 245.453125 217.78125 C 228.484375 217.78125 216.425781 221.289062 216.425781 226.289062 C 216.425781 231.253906 228.484375 234.746094 245.515625 234.746094 Z M 229.03125 226.289062 C 228.785156 224.953125 230.4375 223.648438 233.582031 222.699219 C 236.722656 221.75 241.058594 221.246094 245.515625 221.308594 C 255.210938 221.308594 261.878906 223.328125 261.878906 226.289062 C 261.878906 229.199219 255.210938 231.253906 245.515625 231.253906 C 241.078125 231.3125 236.761719 230.808594 233.625 229.863281 C 230.488281 228.917969 228.820312 227.621094 229.03125 226.289062 Z M 330.789062 234.4375 L 343.089844 234.4375 L 343.089844 224.4375 L 367.089844 234.4375 L 377.574219 234.4375 L 377.574219 218.109375 L 365.273438 218.109375 L 365.273438 228.035156 L 341.332031 218.109375 L 330.789062 218.109375 Z M 450.121094 234.4375 L 462.425781 234.4375 L 462.425781 221.601562 L 479.757812 221.601562 L 479.757812 218.109375 L 432.847656 218.109375 L 432.847656 221.601562 L 450.121094 221.601562 Z M 534.96875 234.4375 L 547.394531 234.4375 L 547.394531 229.34375 L 555.515625 229.34375 L 565.210938 234.4375 L 579.515625 234.4375 L 568.242188 228.761719 C 574.726562 227.910156 578.605469 226.144531 578.605469 223.726562 C 578.605469 220.273438 570.726562 218.089844 558.183594 218.089844 L 534.96875 218.089844 Z M 547.210938 226.21875 L 547.210938 221.289062 L 556.546875 221.289062 C 562.605469 221.289062 566.0625 222.164062 566.0625 223.761719 C 566.0625 225.34375 562.605469 226.21875 556.546875 226.21875 Z M 630.242188 234.4375 L 643.515625 234.4375 L 647.152344 231.617188 L 668.789062 231.617188 L 672.425781 234.4375 L 685.636719 234.4375 L 664.0625 218.109375 L 651.9375 218.109375 Z M 650.304688 228.691406 L 658 222.726562 L 665.636719 228.691406 Z M 764.242188 234.746094 C 778.546875 234.746094 789.636719 232.164062 792.363281 228.199219 L 779.636719 228.199219 C 777.3125 230.09375 771.203125 231.324219 764.484375 231.253906 C 755.152344 231.253906 748.605469 229.21875 748.605469 226.289062 C 748.605469 223.328125 755.273438 221.308594 764.546875 221.308594 C 771.453125 221.308594 777.152344 222.417969 779.210938 224.21875 L 791.9375 224.21875 C 789.03125 220.34375 777.347656 217.640625 764.121094 217.78125 C 756.527344 217.6875 749.152344 218.554688 743.800781 220.175781 C 738.449219 221.792969 735.617188 224.015625 736 226.289062 C 735.667969 228.566406 738.539062 230.777344 743.910156 232.386719 C 749.285156 233.992188 756.660156 234.851562 764.242188 234.746094 Z M 861.453125 234.4375 L 873.757812 234.4375 L 873.757812 221.601562 L 891.089844 221.601562 L 891.089844 218.109375 L 844.183594 218.109375 L 844.183594 221.601562 L 861.453125 221.601562 Z M 965.210938 234.746094 C 978.242188 234.746094 986.0625 232.925781 986.0625 229.835938 C 986.0625 227.253906 980.363281 225.710938 966.96875 224.746094 C 958.605469 224.183594 955.695312 223.5625 955.695312 222.527344 C 955.695312 221.492188 958.910156 220.835938 964.121094 220.835938 C 969.757812 220.835938 973.210938 221.710938 973.210938 223.164062 L 985.152344 223.164062 C 985.152344 219.890625 976.910156 217.78125 963.9375 217.78125 C 951.394531 217.78125 943.636719 219.636719 943.636719 222.617188 C 943.636719 225.253906 949.636719 226.855469 962.425781 227.671875 C 970.0625 228.164062 973.574219 228.835938 973.574219 229.980469 C 973.574219 231.074219 970.363281 231.710938 965.089844 231.710938 C 959.152344 231.710938 955.273438 230.800781 955.273438 229.238281 L 943.152344 229.238281 C 943.152344 232.617188 951.636719 234.746094 965.210938 234.746094 Z M 965.210938 234.746094 "/>
</g>
</svg>
