<?xml version="1.0" encoding="UTF-8"?>
<svg xmlns="http://www.w3.org/2000/svg" xmlns:xlink="http://www.w3.org/1999/xlink" width="900px" height="350px" viewBox="0 0 900 350" version="1.1">
<defs>
<clipPath id="clip1">
  <path d="M 386 177.050781 L 789.453125 177.050781 L 789.453125 253 L 386 253 Z M 386 177.050781 "/>
</clipPath>
<clipPath id="clip2">
  <path d="M 384 235 L 421.816406 235 L 421.816406 241.816406 L 384 241.816406 Z M 384 235 "/>
</clipPath>
</defs>
<g id="surface1">
<g clip-path="url(#clip1)" clip-rule="nonzero">
<path style=" stroke:none;fill-rule:nonzero;fill:rgb(4.705882%,53.333333%,25.490196%);fill-opacity:1;" d="M 594.546875 247.332031 C 596 247.164062 597.019531 247.445312 598 247.714844 C 600.472656 248.40625 603.054688 248.988281 605.964844 249.339844 C 607.78125 249.566406 609.601562 249.597656 611.417969 249.300781 C 612.980469 249.015625 614.617188 248.777344 616.144531 248.464844 C 618.472656 248.011719 619.5625 246.597656 617.964844 245.804688 C 615.855469 244.71875 613.601562 243.699219 611.164062 242.722656 C 606.445312 240.855469 601.230469 239.191406 595.601562 237.757812 C 591.5625 236.671875 587.417969 235.652344 583.308594 234.605469 C 582.644531 234.441406 582.066406 234.230469 581.601562 233.984375 C 581.304688 233.796875 581.253906 233.566406 581.453125 233.363281 C 581.636719 233.21875 582.363281 233.105469 582.835938 233.121094 C 583.527344 233.121094 584.21875 233.234375 584.871094 233.320312 C 589.929688 234.105469 594.640625 235.191406 598.835938 236.542969 C 605.460938 238.542969 612.449219 240.351562 619.746094 241.960938 C 622.4375 242.554688 625.199219 243.089844 628.4375 243.0625 C 633.164062 243.019531 636.289062 241.351562 634.546875 239.640625 C 633.828125 238.992188 632.84375 238.398438 631.636719 237.871094 C 627.691406 236.203125 623.160156 234.753906 618.183594 233.574219 C 612.253906 232.019531 606.074219 230.605469 600.726562 228.738281 C 599.5625 228.328125 598 228.101562 596.617188 227.816406 C 594.726562 227.421875 592.761719 227.097656 590.945312 226.671875 C 589.164062 226.25 587.671875 225.695312 587.199219 224.890625 C 587.019531 224.59375 587.054688 224.296875 587.308594 224 C 587.671875 223.546875 589.019531 223.421875 590.035156 223.6875 C 590.507812 223.816406 590.835938 223.984375 591.238281 224.140625 C 594.945312 225.441406 598.472656 226.828125 602.328125 228.03125 C 606.472656 229.316406 610.871094 230.476562 615.238281 231.652344 C 620.871094 233.160156 626.59375 234.625 632.398438 236.035156 C 636.273438 236.992188 640.757812 237.503906 645.34375 237.519531 C 650.144531 237.519531 654.800781 236.0625 655.890625 234.238281 C 656.253906 233.585938 655.78125 233.035156 654.945312 232.484375 C 652.003906 230.539062 648.035156 228.859375 643.308594 227.550781 C 640.183594 226.699219 636.945312 225.921875 633.855469 225.074219 C 629.925781 224.027344 626.109375 222.9375 622.183594 221.894531 C 617.238281 220.59375 612.183594 219.347656 607.273438 218.046875 C 603.363281 217.085938 600.039062 215.808594 597.527344 214.300781 C 597 213.957031 596.550781 213.597656 596.183594 213.222656 C 595.78125 212.84375 595.636719 212.433594 596.582031 212.121094 C 597.308594 211.878906 598.761719 211.894531 599.636719 212.25 C 600.835938 212.730469 601.890625 213.238281 602.835938 213.777344 C 604.035156 214.425781 605.019531 215.132812 606.109375 215.8125 C 608.289062 217.140625 611.128906 218.214844 614.835938 218.867188 C 622.363281 220.222656 628.910156 222.160156 635.417969 224.128906 C 639.417969 225.359375 644.035156 226.179688 648.65625 226.96875 C 653.5625 227.816406 658.253906 228.78125 662.507812 230.082031 C 664.21875 230.605469 666.328125 230.972656 668.398438 231.210938 C 671.855469 231.636719 675.890625 230.816406 677.34375 229.515625 C 678.253906 228.722656 677.453125 228.03125 676.4375 227.351562 C 676.339844 227.28125 676.164062 227.230469 675.964844 227.210938 C 674.507812 227.082031 673.925781 226.644531 673.308594 226.179688 C 672.84375 225.828125 672.269531 225.5 671.601562 225.203125 C 663.164062 221.597656 653.308594 218.613281 643.417969 215.65625 C 639.417969 214.46875 635.382812 213.308594 631.273438 212.191406 C 626.839844 210.914062 622.820312 209.433594 619.308594 207.78125 C 614.316406 205.671875 608.757812 203.773438 602.726562 202.125 C 601.890625 201.882812 600.546875 201.867188 599.816406 201.585938 C 598.4375 201.089844 596.761719 200.976562 595.089844 200.792969 C 594.222656 200.710938 593.332031 200.671875 592.4375 200.679688 C 591.054688 200.679688 590.726562 200.566406 590.910156 200.042969 C 585.636719 200.058594 580.183594 200.511719 574.980469 199.507812 C 573.601562 200.1875 572 200.894531 570.691406 201.671875 C 566.183594 204.300781 559.601562 205.617188 551.964844 206.296875 L 535.527344 207.792969 C 533.164062 208.007812 530.871094 207.851562 528.617188 207.554688 C 525.964844 207.199219 525.054688 206.421875 526.144531 205.402344 C 526.4375 205.105469 526.835938 204.824219 527.273438 204.554688 C 530.800781 202.476562 534.398438 200.453125 537.855469 198.363281 C 540.3125 196.910156 542.628906 195.425781 544.800781 193.90625 C 548.875 190.960938 555.96875 188.820312 564.328125 188.023438 C 571.527344 187.246094 578.871094 186.636719 586.144531 186.015625 C 590.691406 185.632812 595.238281 185.816406 599.855469 186.015625 C 608.945312 186.425781 617.671875 187.386719 626.289062 188.5625 C 629.5625 188.984375 632.65625 189.664062 635.925781 190.117188 C 638.183594 190.398438 640.617188 190.613281 642.980469 190.613281 C 647.855469 190.65625 652.726562 190.527344 657.5625 190.457031 C 658.035156 190.441406 658.65625 190.273438 658.910156 190.117188 C 659.925781 189.464844 661.238281 188.945312 662.910156 188.5625 C 667.792969 187.402344 673.402344 186.785156 679.128906 186.78125 C 680.183594 186.78125 681.164062 186.851562 682.144531 186.992188 C 683.636719 187.175781 684.21875 187.699219 683.238281 188.195312 C 682.507812 188.589844 681.417969 188.984375 680.253906 189.15625 C 677.710938 189.523438 675.089844 189.761719 672.507812 190.019531 L 660.65625 191.179688 C 660.363281 191.207031 660 191.402344 660 191.53125 C 659.964844 192.183594 659.925781 192.832031 660.074219 193.46875 L 663.054688 204.359375 C 664.691406 210.4375 667.855469 216.421875 672.617188 222.273438 C 673.308594 223.125 673.636719 224.015625 674.507812 224.835938 C 675.089844 225.371094 676.328125 225.824219 677.273438 226.289062 C 677.417969 226.332031 677.816406 226.332031 678.074219 226.304688 C 685.019531 225.65625 692.144531 225.667969 699.199219 225.582031 C 701.636719 225.554688 704.074219 225.582031 706.691406 225.582031 C 706.363281 224.496094 706.144531 223.503906 705.78125 222.515625 C 704.328125 218.726562 703.164062 214.921875 701.308594 211.160156 C 699.5625 207.582031 697.199219 204.074219 694.980469 200.554688 C 692.800781 196.976562 690.398438 193.414062 688.183594 189.847656 C 687.273438 188.691406 687.039062 187.46875 687.492188 186.269531 C 688 185.351562 689.34375 184.714844 691.78125 184.574219 C 695.34375 184.347656 699.019531 184.25 702.582031 184.007812 C 713.492188 183.273438 724.363281 182.550781 735.199219 181.746094 C 746.21875 180.898438 756.945312 179.597656 767.710938 178.351562 C 771.527344 177.925781 775.34375 177.546875 779.199219 177.148438 L 779.855469 177.09375 C 780.582031 177.050781 781.308594 177.078125 781.417969 177.417969 C 781.601562 177.757812 780.945312 177.828125 780.328125 177.886719 L 766.328125 179.371094 C 757.308594 180.34375 748.328125 181.421875 739.238281 182.242188 C 724.546875 183.582031 709.671875 184.644531 694.65625 185.238281 L 693.492188 185.308594 C 690.398438 185.492188 689.5625 185.847656 689.453125 187.0625 C 689.34375 188.363281 690.253906 189.578125 691.054688 190.824219 C 693.964844 195.363281 696.761719 199.917969 699.671875 204.441406 C 702.507812 208.882812 704.980469 213.351562 706.472656 217.90625 C 707.453125 220.875 708.253906 223.859375 709.238281 226.84375 C 709.964844 229.0625 710.871094 231.28125 711.671875 233.515625 C 711.78125 233.8125 712.074219 233.941406 712.910156 233.855469 C 716.398438 233.558594 719.855469 233.207031 723.382812 233.007812 C 729.492188 232.65625 735.601562 232.371094 741.746094 232.074219 C 753.019531 231.507812 763.816406 230.335938 774.144531 228.511719 C 777.636719 227.902344 781.382812 227.492188 785.019531 227.054688 C 786.144531 226.914062 787.453125 226.914062 788.65625 226.957031 C 789.128906 226.96875 789.816406 227.167969 790 227.351562 C 790.363281 227.691406 789.636719 227.917969 788.910156 228.003906 C 788.328125 228.085938 787.34375 228.128906 787.089844 228.003906 C 786.582031 227.71875 786 227.789062 785.453125 227.859375 C 781.890625 228.328125 778.183594 228.722656 774.726562 229.332031 C 763.109375 231.34375 750.730469 232.621094 738.074219 233.105469 C 730.074219 233.445312 722 233.785156 714.183594 234.621094 L 713.816406 234.648438 C 710.835938 234.875 709.925781 234.648438 709.453125 233.476562 L 707.019531 226.757812 C 706.910156 226.417969 706.546875 226.332031 705.746094 226.332031 C 701.34375 226.390625 696.871094 226.390625 692.472656 226.515625 C 688.183594 226.644531 683.890625 226.871094 679.601562 227.054688 C 679.304688 227.078125 679.015625 227.105469 678.726562 227.140625 L 679.199219 227.578125 C 680.65625 228.992188 679.671875 230.320312 676.546875 231.269531 C 672.691406 232.429688 668.65625 232.429688 664.546875 231.59375 C 663.070312 231.292969 661.671875 230.9375 660.363281 230.535156 C 656.582031 229.332031 652.21875 228.554688 647.816406 227.746094 C 649.5625 228.496094 651.382812 229.191406 652.980469 229.96875 C 654.4375 230.675781 655.78125 231.453125 657.054688 232.230469 C 658.546875 233.148438 658.472656 234.125 657.417969 235.101562 C 655.15625 237.417969 648.898438 238.757812 642.65625 238.253906 C 639.890625 238.113281 637.238281 237.703125 634.546875 237.40625 L 633.164062 237.195312 C 633.925781 237.574219 634.507812 237.84375 634.980469 238.128906 C 636.691406 239.074219 637.671875 240.105469 637.089844 241.265625 C 636.363281 242.738281 632.507812 243.882812 628.4375 243.910156 C 624.945312 243.925781 621.890625 243.417969 619.019531 242.765625 C 615.128906 241.890625 611.308594 240.925781 607.453125 240.007812 C 607.164062 239.9375 606.835938 239.851562 606.4375 239.824219 C 607.78125 240.304688 609.199219 240.773438 610.4375 241.28125 C 613.382812 242.46875 616.328125 243.65625 619.164062 244.902344 C 622.691406 246.472656 620.183594 248.929688 616 249.441406 C 614.761719 249.582031 613.636719 249.851562 612.398438 250.046875 C 609.964844 250.472656 607.492188 250.472656 605.019531 250.089844 C 603.054688 249.808594 601.164062 249.46875 599.199219 249.15625 C 597.453125 251.277344 589.636719 253.144531 582.183594 252.367188 C 577.453125 251.871094 573.453125 250.953125 570.289062 249.496094 C 569.019531 248.917969 567.816406 248.324219 566.546875 247.714844 C 566.363281 247.773438 566.109375 247.828125 565.890625 247.914062 C 564.507812 248.378906 562.871094 248.621094 561.089844 248.492188 C 556.320312 248.253906 551.953125 247.332031 548.835938 245.90625 C 547.664062 245.253906 546.722656 244.546875 546.035156 243.796875 C 545.308594 243.132812 545.453125 242.414062 546.144531 241.621094 C 545.527344 241.875 545.054688 242.042969 544.691406 242.242188 C 542.871094 242.992188 540.65625 243.246094 538.109375 243.089844 C 534.363281 242.863281 530.835938 242.425781 527.78125 241.535156 C 522.691406 240.078125 518.761719 237.574219 521.492188 234.480469 L 522.074219 233.773438 L 516.691406 235.328125 C 512.210938 236.632812 506.679688 237.273438 501.089844 237.136719 C 499.710938 237.09375 498.363281 236.980469 497.089844 236.796875 C 492.289062 236.160156 490.035156 234.550781 491.089844 232.640625 C 491.816406 231.394531 493.382812 230.308594 495.273438 229.304688 L 496 228.949219 L 477.34375 225.511719 C 477.492188 226.941406 474.21875 228.003906 471.164062 227.464844 L 471.019531 228.566406 L 471.019531 228.933594 C 470.980469 230.195312 470.289062 230.71875 466.144531 230.773438 C 461.089844 230.832031 456.21875 230.378906 451.308594 230.082031 C 448.128906 229.933594 445.015625 229.609375 442.074219 229.121094 C 439.710938 228.695312 437.601562 228.128906 435.710938 227.449219 L 435.273438 227.308594 C 435.1875 227.285156 435.085938 227.269531 434.980469 227.265625 C 431.5625 230.238281 427.054688 233.023438 425.308594 236.261719 C 424.691406 237.449219 424.800781 238.609375 426.035156 239.753906 C 426.871094 240.585938 428.328125 241.167969 430.472656 241.492188 C 436.289062 242.414062 441.636719 241.917969 446.65625 240.601562 C 452.617188 239.019531 457.855469 237.0625 462.144531 234.804688 C 463.855469 233.914062 465.671875 233.066406 467.527344 232.214844 C 467.816406 232.074219 468.507812 232.074219 468.980469 232.019531 C 469.164062 232.214844 469.238281 232.429688 469.34375 232.640625 C 469.34375 232.710938 469.089844 232.796875 468.980469 232.867188 C 465.601562 234.464844 462.328125 236.089844 458.835938 237.644531 C 454.75 239.476562 449.800781 240.984375 444.253906 242.085938 C 439.890625 242.964844 435.238281 243.019531 430.507812 242.414062 C 425.890625 241.816406 423.816406 240.460938 422.980469 238.722656 C 422.390625 237.15625 422.960938 235.554688 424.617188 234.109375 C 426.546875 232.214844 428.871094 230.378906 431.054688 228.511719 L 432.21875 227.550781 C 432.945312 226.96875 433.890625 226.402344 432.582031 225.738281 C 432.289062 225.554688 432.289062 225.257812 432.363281 225.019531 C 432.472656 224.507812 433.453125 224.253906 434.800781 224.296875 C 436.035156 224.324219 436.910156 224.652344 436.871094 225.132812 C 436.800781 225.429688 436.617188 225.726562 436.289062 226.007812 C 436.035156 226.261719 436.183594 226.433594 436.65625 226.617188 C 439.628906 227.851562 443.539062 228.683594 447.816406 228.992188 C 452.507812 229.375 457.273438 229.613281 462 229.867188 C 463.636719 229.96875 465.308594 229.9375 466.980469 229.910156 C 468.472656 229.882812 468.761719 229.714844 468.835938 229.121094 L 469.199219 226.671875 C 469.199219 226.53125 469.199219 226.390625 469.128906 226.261719 C 468.0625 224.617188 467.765625 222.914062 468.253906 221.226562 C 469.34375 215.488281 473.054688 209.972656 478.582031 204.640625 C 480.835938 202.679688 483.640625 200.820312 486.945312 199.097656 C 487.710938 198.671875 488.253906 198.207031 488.980469 197.695312 C 486.871094 197.441406 484.980469 197.285156 483.308594 196.976562 C 481.671875 196.664062 480.253906 196.183594 478.582031 195.746094 L 473.855469 198.078125 C 465.527344 202.222656 459.199219 206.816406 452.910156 211.429688 C 448.550781 214.707031 444.605469 218.066406 441.089844 221.496094 C 440.617188 221.949219 440 222.386719 439.417969 222.828125 C 439.089844 223.082031 438.546875 223.25 437.78125 223.109375 C 436.945312 222.9375 437.308594 222.683594 437.601562 222.429688 C 439.527344 220.691406 441.238281 218.921875 443.34375 217.210938 C 446.835938 214.371094 450.546875 211.554688 454.183594 208.753906 C 458.429688 205.449219 463.355469 202.28125 468.910156 199.28125 C 471.34375 197.964844 474 196.722656 476.507812 195.433594 C 478.507812 194.417969 478.328125 194.089844 475.054688 193.792969 C 471.492188 193.441406 467.855469 193.242188 464.253906 192.929688 C 458.074219 192.394531 451.890625 191.828125 445.78125 191.234375 C 438 190.484375 430 190.203125 422.074219 189.863281 C 413.394531 189.5625 404.824219 188.898438 396.507812 187.882812 C 394.546875 187.628906 392.691406 187.304688 390.761719 186.992188 C 389.890625 186.851562 389.199219 186.820312 388.835938 187.273438 C 388.617188 187.527344 388.035156 187.742188 387.382812 187.570312 C 387.019531 187.472656 386.835938 187.148438 386.945312 186.949219 C 387.34375 186.199219 388.800781 185.890625 390.691406 186.101562 C 391.636719 186.214844 392.582031 186.355469 393.453125 186.523438 C 399.710938 187.601562 406.363281 188.125 413.054688 188.519531 C 419.164062 188.886719 425.34375 189.15625 431.527344 189.425781 C 438.363281 189.707031 444.980469 190.328125 451.671875 190.921875 C 459.089844 191.585938 466.546875 192.167969 473.964844 192.789062 C 474.980469 192.875 476.035156 192.988281 477.019531 193.144531 C 479.417969 193.511719 480.074219 193.90625 480.035156 194.769531 C 482.035156 194.898438 484.035156 194.980469 485.964844 195.164062 C 488 195.363281 489.527344 195.871094 490.398438 196.636719 C 490.582031 196.792969 490.910156 196.890625 491.34375 196.917969 C 496.4375 197.171875 501.527344 197.429688 506.617188 197.625 C 510.253906 197.769531 513.671875 197.316406 517.164062 196.988281 C 524.289062 196.324219 531.453125 195.6875 538.617188 195.050781 C 539.199219 194.996094 539.816406 194.953125 540.398438 194.996094 C 540.761719 195.023438 541.34375 195.222656 541.308594 195.320312 C 541.222656 195.5 540.925781 195.652344 540.507812 195.730469 C 539.710938 195.832031 538.835938 195.832031 538.035156 195.902344 C 531.238281 196.539062 524.363281 197.089844 517.671875 197.839844 C 511.128906 198.546875 504.726562 198.617188 498.144531 198.121094 C 495.78125 197.953125 493.417969 197.867188 491.417969 197.769531 C 490.289062 198.515625 489.492188 199.210938 488.328125 199.804688 C 482.582031 202.972656 478.34375 206.519531 475.816406 210.269531 C 473.136719 213.726562 471.359375 217.277344 470.507812 220.875 C 470.21875 222.160156 470.472656 223.476562 470.472656 224.917969 C 471.238281 224.539062 472.328125 224.496094 472.4375 224.015625 C 472.472656 223.703125 473.308594 223.675781 473.964844 223.800781 C 476.144531 224.242188 478.328125 224.707031 480.582031 225.132812 C 485.527344 226.066406 490.472656 226.996094 495.492188 227.890625 C 501.78125 228.992188 508.183594 230.011719 514.4375 231.15625 C 517.527344 231.722656 520.65625 232.0625 524 232.144531 C 524.871094 232.171875 525.78125 232.1875 526.582031 232.273438 C 527.855469 232.414062 528.691406 232.285156 529.417969 231.847656 C 530.183594 231.394531 531.164062 231 532.109375 230.617188 C 534.289062 229.683594 537.617188 229.292969 540.761719 229.601562 C 548.035156 230.164062 553.382812 233.035156 552.472656 235.878906 C 552.21875 236.628906 551.816406 237.363281 551.453125 238.15625 L 554.253906 236.96875 C 555.636719 236.402344 557.019531 235.78125 558.507812 235.242188 C 560.476562 234.503906 563.128906 234.101562 565.867188 234.132812 C 568.601562 234.160156 571.195312 234.617188 573.054688 235.398438 C 576.160156 236.542969 577.988281 238.117188 578.144531 239.78125 C 581.054688 239.171875 583.746094 239.527344 586.4375 239.953125 C 588.144531 240.21875 589.527344 240.660156 590.507812 241.253906 C 593.8125 243.003906 595.246094 245.179688 594.507812 247.332031 Z M 657.601562 191.476562 C 655.164062 191.476562 652.617188 191.417969 650.109375 191.476562 C 643.128906 191.660156 636.4375 191.363281 630.035156 190.144531 C 620.816406 188.503906 611.007812 187.421875 600.945312 186.933594 C 596.855469 186.613281 592.65625 186.546875 588.507812 186.738281 C 579.746094 187.304688 571.128906 188.09375 562.691406 189.140625 C 556.375 189.820312 551.011719 191.449219 547.78125 193.667969 C 544.035156 196.355469 539.601562 198.871094 535.417969 201.445312 C 533.601562 202.574219 531.5625 203.621094 529.636719 204.726562 C 529.089844 205.035156 528.582031 205.363281 528.183594 205.714844 C 527.527344 206.253906 527.855469 206.535156 529.308594 206.746094 C 531.199219 207.03125 533.199219 207.144531 535.128906 206.972656 C 541.816406 206.367188 548.472656 205.757812 555.054688 205.050781 C 558.691406 204.667969 562.328125 204.144531 564.871094 202.984375 C 567.78125 201.683594 570.472656 200.300781 573.238281 198.925781 C 573.460938 198.804688 573.5625 198.652344 573.527344 198.503906 C 573.273438 197.542969 572.871094 196.566406 572.726562 195.589844 C 572.65625 195.152344 572.945312 194.699219 573.273438 194.273438 C 573.453125 194.089844 574.074219 193.851562 574.582031 193.851562 C 575.054688 193.820312 575.710938 193.992188 576.183594 194.132812 C 576.472656 194.246094 576.65625 194.457031 576.800781 194.628906 C 577.890625 195.832031 577.78125 197.046875 576.726562 198.25 C 576.289062 198.757812 576.363281 198.871094 577.636719 199.054688 C 578.035156 199.125 578.472656 199.167969 578.910156 199.183594 C 582.144531 199.210938 585.382812 199.265625 588.617188 199.253906 C 591.292969 199.222656 593.882812 198.886719 596.074219 198.289062 C 596.582031 198.148438 596.945312 197.910156 597.238281 197.695312 C 598.328125 196.890625 599.273438 196.054688 600.398438 195.277344 C 600.800781 194.96875 601.527344 194.714844 602.253906 194.515625 C 602.691406 194.386719 603.5625 194.332031 603.964844 194.417969 C 604.398438 194.5 604.617188 194.8125 604.691406 195.023438 C 604.691406 195.238281 604.472656 195.449219 604.289062 195.644531 C 603.199219 196.679688 601.636719 197.570312 599.5625 198.332031 C 598.507812 198.699219 598.472656 198.96875 599.164062 199.421875 L 600.617188 200.46875 C 600.835938 200.609375 601.089844 200.765625 601.417969 200.851562 C 606.328125 201.925781 610.507812 203.367188 614.691406 204.808594 C 617.964844 205.941406 620.871094 207.214844 623.816406 208.488281 C 627.636719 210.15625 632.289062 211.359375 636.800781 212.671875 C 648.617188 216.125 660.582031 219.546875 670.910156 223.703125 L 671.636719 223.902344 C 667.234375 218.636719 663.996094 213.230469 661.964844 207.75 C 660.253906 202.292969 658.617188 196.847656 657.601562 191.476562 Z M 567.78125 247.066406 L 571.308594 248.691406 C 574.152344 250.109375 578.152344 251.113281 582.65625 251.535156 C 586.871094 251.945312 590.65625 251.605469 593.925781 250.5 C 595.019531 250.148438 595.925781 249.679688 596.726562 249.214844 C 597.019531 249.058594 597.019531 248.664062 596.726562 248.550781 C 596.289062 248.378906 595.453125 248.335938 594.800781 248.324219 C 593.855469 248.28125 593.710938 248.632812 593.308594 248.875 C 592.726562 249.242188 591.816406 249.339844 591.128906 249.15625 C 590.398438 248.972656 590.328125 248.5625 590.910156 248.253906 C 591.019531 248.183594 591.199219 248.140625 591.273438 248.070312 C 591.636719 247.855469 592.035156 247.644531 592.183594 247.402344 C 592.925781 245.71875 592.15625 243.988281 590 242.496094 C 588.605469 241.324219 585.765625 240.515625 582.472656 240.347656 C 580.363281 240.207031 579.089844 240.417969 577.890625 241.195312 C 576.910156 241.777344 576.617188 242.398438 577.890625 243.019531 C 578.253906 243.203125 578.582031 243.386719 578.835938 243.585938 C 580.328125 244.660156 580.65625 245.777344 579.5625 246.9375 C 578.507812 248.070312 576.109375 248.4375 573.273438 247.925781 C 570.945312 247.503906 569.964844 246.769531 569.78125 245.691406 Z M 530.835938 232.472656 L 530.980469 232.570312 L 531.527344 232.65625 C 536.800781 233.21875 540.253906 234.675781 543.308594 236.332031 C 544.144531 236.785156 544.398438 237.292969 543.890625 237.816406 C 542.617188 239.132812 538.691406 239.878906 535.34375 239.371094 C 533.238281 239.0625 531.34375 238.59375 529.34375 238.167969 C 526.183594 237.460938 525.128906 236.386719 525.855469 235.03125 C 526.183594 234.40625 526.65625 233.800781 527.089844 233.148438 L 525.273438 233.050781 C 525.019531 233.261719 524.761719 233.417969 524.617188 233.585938 C 523.382812 234.691406 522.253906 235.851562 522.800781 237.066406 C 523.636719 239.023438 526.984375 240.675781 531.671875 241.449219 C 533.746094 241.816406 536.035156 242.015625 538.21875 242.242188 C 540.144531 242.425781 541.855469 242.214844 543.164062 241.621094 C 543.964844 241.265625 544.691406 240.871094 545.34375 240.476562 C 547.019531 239.34375 549.089844 238.3125 549.855469 236.996094 C 551.199219 234.675781 549.855469 232.726562 544.980469 231.226562 C 542.035156 230.335938 537.964844 230.09375 535.308594 230.6875 C 533.382812 231.140625 532.21875 231.847656 530.835938 232.472656 Z M 520.910156 232.964844 C 518.945312 232.695312 516.980469 232.5 515.128906 232.1875 C 509.816406 231.28125 504.546875 230.347656 499.273438 229.402344 C 498.507812 229.261719 498 229.261719 497.453125 229.542969 C 495.5625 230.503906 493.964844 231.523438 493.238281 232.710938 C 492.253906 234.351562 494.074219 235.554688 498.183594 236.0625 C 500.945312 236.417969 503.746094 236.359375 506.507812 236.160156 C 512.328125 235.75 516.726562 234.394531 520.910156 232.964844 Z M 554.074219 238.324219 C 551.378906 239.363281 549.347656 240.632812 548.144531 242.03125 C 547.78125 242.453125 547.746094 242.894531 548 243.332031 C 548.800781 244.730469 550.726562 245.875 554 246.570312 C 555.816406 246.9375 557.78125 247.277344 559.746094 247.53125 C 562.21875 247.871094 563.964844 247.671875 565.453125 246.824219 C 568.425781 245.199219 570.222656 243.296875 570.65625 241.308594 C 570.65625 241.238281 570.65625 241.167969 570.582031 241.109375 C 569.492188 241.746094 568.4375 242.414062 567.273438 243.035156 C 566.363281 243.488281 565.089844 243.601562 563.710938 243.417969 C 557.601562 242.625 553.816406 240.105469 554.074219 238.324219 Z M 537.164062 238.722656 C 539.164062 238.691406 540.328125 238.339844 541.34375 237.84375 C 542.074219 237.492188 542.21875 237.125 541.417969 236.753906 C 540.253906 236.191406 539.089844 235.625 537.855469 235.101562 C 535.816406 234.253906 533.308594 233.6875 530.398438 233.402344 C 529.855469 233.347656 529.34375 233.289062 529.164062 233.585938 C 528.726562 234.296875 528.144531 235.03125 527.855469 235.765625 C 527.746094 236.046875 527.855469 236.332031 528.144531 236.585938 C 528.472656 236.839844 528.945312 237.039062 529.601562 237.195312 C 531.417969 237.644531 533.308594 238.070312 535.199219 238.464844 C 535.890625 238.609375 536.691406 238.664062 537.164062 238.722656 Z M 560.074219 237.308594 C 558.253906 237.308594 555.925781 238.367188 556.328125 239.003906 C 557.34375 240.644531 559.855469 241.832031 563.78125 242.539062 C 564.691406 242.710938 565.382812 242.636719 565.964844 242.339844 C 567.527344 241.59375 568.617188 240.773438 568.980469 239.824219 C 569.050781 239.574219 568.835938 239.328125 568.398438 239.144531 C 566.183594 238.363281 563.589844 237.761719 560.761719 237.378906 C 560.507812 237.335938 560.253906 237.320312 560.035156 237.308594 Z M 572.289062 243.078125 L 574.21875 241.847656 C 576.144531 240.660156 576.398438 239.414062 575.128906 238.097656 C 574.167969 237.222656 572.730469 236.433594 570.910156 235.792969 C 566.835938 234.238281 560.800781 235.128906 558.507812 236.457031 C 559.5625 236.515625 560.871094 236.457031 561.855469 236.640625 C 564.472656 237.164062 567.128906 237.71875 569.492188 238.394531 C 571.78125 239.0625 572.980469 240.050781 572.800781 241.222656 C 572.726562 241.789062 572.507812 242.371094 572.289062 243.089844 Z M 661.382812 190.257812 L 662.835938 190.144531 C 666.328125 189.792969 669.816406 189.453125 673.273438 189.085938 C 675.453125 188.871094 677.527344 188.632812 679.636719 188.363281 C 680.289062 188.265625 680.835938 188.039062 681.601562 187.828125 C 676.4375 187.121094 664.65625 188.546875 661.382812 190.257812 Z M 574.945312 242.863281 C 573.964844 243.742188 572.980469 244.503906 572.183594 245.296875 C 571.710938 245.761719 571.925781 246.257812 572.691406 246.667969 C 573.417969 247.09375 574.507812 247.332031 575.816406 247.289062 C 577.128906 247.234375 577.492188 246.769531 577.78125 246.34375 C 577.925781 246.132812 578 245.917969 578.035156 245.707031 C 578.183594 244.632812 576.761719 243.8125 574.945312 242.863281 Z M 475.128906 225.769531 C 475.128906 225.441406 474.398438 225.132812 473.5625 225.132812 C 472.617188 225.132812 471.417969 225.738281 471.671875 226.25 C 471.746094 226.445312 472.507812 226.699219 473.054688 226.757812 C 473.890625 226.828125 475.164062 226.191406 475.128906 225.769531 Z M 602.363281 215.488281 L 602.726562 215.359375 C 601.34375 214.554688 600.472656 213.59375 598.472656 212.941406 L 598.035156 213.054688 Z M 593.308594 199.789062 L 597.308594 200.1875 C 597.453125 200.1875 597.601562 200.1875 597.746094 200.15625 L 596.398438 199.238281 Z M 487.5625 196.679688 C 486.691406 196.070312 484.328125 195.703125 482.472656 195.914062 Z M 593.019531 226.09375 L 589.382812 224.621094 C 589.925781 225.371094 591.308594 225.796875 593.019531 226.09375 Z M 574.945312 197.003906 L 575.199219 197.003906 L 575.199219 195.40625 L 574.945312 195.40625 Z M 574.945312 197.003906 "/>
</g>
<g clip-path="url(#clip2)" clip-rule="nonzero">
<path style=" stroke:none;fill-rule:nonzero;fill:rgb(4.705882%,53.333333%,25.490196%);fill-opacity:1;" d="M 385.925781 235.992188 C 389.417969 236.359375 392.980469 236.65625 396.398438 237.125 C 404.109375 238.167969 411.746094 239.300781 419.417969 240.402344 C 419.710938 240.433594 420.074219 240.433594 420.328125 240.503906 C 420.835938 240.617188 421.34375 240.730469 421.710938 240.914062 C 421.855469 240.984375 421.636719 241.308594 421.453125 241.335938 C 420.910156 241.40625 420.21875 241.449219 419.710938 241.378906 C 415.527344 240.742188 411.382812 240.023438 407.128906 239.441406 C 401.128906 238.621094 395.019531 237.886719 388.910156 237.136719 C 387.855469 236.996094 386.726562 236.980469 385.636719 236.925781 C 384.910156 236.867188 384.109375 236.828125 384.183594 236.457031 C 384.253906 236.078125 385.128906 236.121094 385.816406 236.121094 Z M 385.925781 235.992188 "/>
</g>
<path style=" stroke:none;fill-rule:nonzero;fill:rgb(95.294118%,55.686275%,12.54902%);fill-opacity:1;" d="M 65.453125 123.992188 L 65.453125 159.304688 L 122.910156 159.304688 L 122.910156 153.292969 L 81.089844 153.292969 L 81.089844 144.652344 L 112.507812 144.652344 L 112.507812 138.570312 L 81.089844 138.570312 L 81.089844 130.042969 L 122.910156 130.042969 L 122.910156 123.992188 Z M 209.816406 142.289062 L 209.816406 159.304688 L 225.308594 159.304688 L 225.308594 123.441406 L 178.761719 148.78125 L 132 123.453125 L 132 159.316406 L 147.453125 159.316406 L 147.453125 142.261719 L 178.761719 159.160156 Z M 234.507812 159.304688 L 250.144531 159.304688 L 249.964844 145.628906 L 268.328125 145.628906 C 276.246094 145.664062 283.933594 144.597656 290 142.617188 C 295.972656 140.667969 299.445312 137.800781 299.492188 134.769531 C 299.492188 133.3125 298.691406 131.925781 297.054688 130.582031 C 295.304688 129.222656 292.910156 128.003906 290 126.988281 C 283.886719 125.042969 276.226562 123.984375 268.328125 123.992188 L 234.507812 123.992188 Z M 249.964844 139.546875 L 249.964844 130.042969 L 268.328125 130.042969 C 272.347656 130.007812 276.28125 130.5 279.492188 131.445312 C 282.398438 132.40625 283.925781 133.496094 283.925781 134.769531 C 283.925781 136.054688 282.507812 137.144531 279.78125 138.007812 C 276.613281 139.070312 272.511719 139.621094 268.328125 139.546875 Z M 304.871094 123.992188 L 304.871094 159.304688 L 362.328125 159.304688 L 362.328125 153.292969 L 320.507812 153.292969 L 320.507812 123.992188 Z M 450.65625 150.664062 C 454.785156 147.929688 456.921875 144.808594 456.835938 141.640625 C 456.835938 138.417969 454.800781 135.476562 450.65625 132.675781 C 442.613281 127.074219 427.371094 123.617188 410.871094 123.652344 C 402.582031 123.652344 394.871094 124.472656 387.855469 126.054688 C 380.863281 127.625 375.082031 129.894531 371.128906 132.632812 C 366.992188 135.359375 364.839844 138.472656 364.910156 141.640625 C 364.910156 144.878906 367.019531 147.875 371.164062 150.664062 C 375.144531 153.390625 380.949219 155.648438 387.964844 157.195312 C 394.886719 158.804688 402.808594 159.644531 410.871094 159.628906 C 419.164062 159.628906 426.726562 158.878906 433.78125 157.265625 C 440.789062 155.675781 446.605469 153.398438 450.65625 150.664062 Z M 437.199219 135.628906 C 442.574219 139.363281 442.574219 143.917969 437.199219 147.652344 C 431.8125 151.328125 421.753906 153.589844 410.875 153.574219 C 399.996094 153.5625 389.976562 151.269531 384.65625 147.578125 C 381.898438 145.785156 380.460938 143.730469 380.507812 141.640625 C 380.507812 139.503906 381.78125 137.511719 384.507812 135.6875 C 387.226562 133.875 391.078125 132.363281 395.710938 131.289062 C 400.277344 130.210938 405.53125 129.652344 410.871094 129.675781 C 421.761719 129.703125 431.796875 131.976562 437.238281 135.644531 Z M 473.925781 123.992188 L 455.417969 123.992188 L 493.238281 147.496094 L 493.238281 159.304688 L 508.726562 159.304688 L 508.726562 147.496094 L 546.945312 123.992188 L 528.328125 123.992188 L 500.980469 141.101562 Z M 628.65625 142.289062 L 628.65625 159.304688 L 644.109375 159.304688 L 644.109375 123.441406 L 597.5625 148.78125 L 550.835938 123.441406 L 550.835938 159.304688 L 566.289062 159.304688 L 566.289062 142.25 L 597.5625 159.148438 Z M 653.308594 123.992188 L 653.308594 159.304688 L 710.761719 159.304688 L 710.761719 153.292969 L 668.945312 153.292969 L 668.945312 144.652344 L 700.363281 144.652344 L 700.363281 138.570312 L 668.945312 138.570312 L 668.945312 130.042969 L 710.761719 130.042969 L 710.761719 123.992188 Z M 735.308594 159.304688 L 735.308594 138.304688 L 791.34375 160.09375 L 791.34375 123.992188 L 775.890625 123.992188 L 775.890625 145.246094 L 719.890625 123.441406 L 719.890625 159.304688 Z M 795.890625 123.992188 L 795.890625 130.042969 L 823.089844 130.042969 L 823.089844 159.304688 L 838.546875 159.304688 L 838.546875 130.042969 L 865.890625 130.042969 L 865.890625 123.992188 Z M 795.890625 123.992188 "/>
<path style=" stroke:none;fill-rule:nonzero;fill:rgb(4.705882%,53.333333%,25.490196%);fill-opacity:1;" d="M 81.308594 182.578125 C 89.890625 182.578125 96.546875 180.570312 98.183594 177.488281 L 90.546875 177.488281 C 89.152344 178.960938 85.484375 179.917969 81.453125 179.863281 C 75.855469 179.863281 71.925781 178.28125 71.925781 176.003906 C 71.925781 173.699219 75.925781 172.128906 81.492188 172.128906 C 85.636719 172.128906 89.054688 172.992188 90.289062 174.390625 L 97.964844 174.390625 C 96.21875 171.375 89.183594 169.269531 81.238281 169.386719 C 76.6875 169.316406 72.269531 169.992188 69.070312 171.253906 C 65.867188 172.511719 64.171875 174.234375 64.398438 176.003906 C 64.203125 177.769531 65.917969 179.488281 69.136719 180.738281 C 72.351562 181.988281 76.765625 182.65625 81.308594 182.578125 Z M 147.273438 182.578125 C 157.453125 182.578125 164.726562 179.863281 164.726562 176.003906 C 164.726562 172.113281 157.453125 169.386719 147.273438 169.386719 C 137.089844 169.386719 129.855469 172.113281 129.855469 176.003906 C 129.855469 179.863281 137.089844 182.578125 147.308594 182.578125 Z M 137.417969 176.003906 C 137.269531 174.964844 138.261719 173.949219 140.148438 173.210938 C 142.035156 172.472656 144.636719 172.078125 147.308594 172.128906 C 153.128906 172.128906 157.128906 173.699219 157.128906 176.003906 C 157.128906 178.265625 153.128906 179.863281 147.308594 179.863281 C 144.644531 179.910156 142.058594 179.515625 140.175781 178.78125 C 138.292969 178.046875 137.292969 177.039062 137.417969 176.003906 Z M 198.472656 182.339844 L 205.855469 182.339844 L 205.855469 174.5625 L 220.253906 182.339844 L 226.546875 182.339844 L 226.546875 169.640625 L 219.164062 169.640625 L 219.164062 177.363281 L 204.800781 169.640625 L 198.472656 169.640625 Z M 270.074219 182.339844 L 277.453125 182.339844 L 277.453125 172.355469 L 287.855469 172.355469 L 287.855469 169.640625 L 259.710938 169.640625 L 259.710938 172.355469 L 270.074219 172.355469 Z M 320.980469 182.339844 L 328.4375 182.339844 L 328.4375 178.378906 L 333.308594 178.378906 L 339.128906 182.339844 L 347.710938 182.339844 L 340.945312 177.925781 C 344.835938 177.261719 347.164062 175.890625 347.164062 174.011719 C 347.164062 171.324219 342.4375 169.625 334.910156 169.625 L 320.980469 169.625 Z M 328.328125 175.949219 L 328.328125 172.113281 L 333.925781 172.113281 C 337.5625 172.113281 339.636719 172.792969 339.636719 174.039062 C 339.636719 175.269531 337.5625 175.949219 333.925781 175.949219 Z M 378.144531 182.339844 L 386.109375 182.339844 L 388.289062 180.148438 L 401.273438 180.148438 L 403.453125 182.339844 L 411.382812 182.339844 L 398.4375 169.640625 L 391.164062 169.640625 Z M 390.183594 177.871094 L 394.800781 173.230469 L 399.382812 177.871094 Z M 458.546875 182.578125 C 467.128906 182.578125 473.78125 180.570312 475.417969 177.488281 L 467.78125 177.488281 C 466.386719 178.960938 462.722656 179.917969 458.691406 179.863281 C 453.089844 179.863281 449.164062 178.28125 449.164062 176.003906 C 449.164062 173.699219 453.164062 172.128906 458.726562 172.128906 C 462.871094 172.128906 466.289062 172.992188 467.527344 174.390625 L 475.164062 174.390625 C 473.417969 171.378906 466.40625 169.277344 458.472656 169.386719 C 453.917969 169.3125 449.492188 169.988281 446.28125 171.246094 C 443.070312 172.507812 441.371094 174.234375 441.601562 176.003906 C 441.402344 177.773438 443.125 179.492188 446.347656 180.742188 C 449.570312 181.996094 453.996094 182.660156 458.546875 182.578125 Z M 516.871094 182.339844 L 524.253906 182.339844 L 524.253906 172.355469 L 534.65625 172.355469 L 534.65625 169.640625 L 506.507812 169.640625 L 506.507812 172.355469 L 516.871094 172.355469 Z M 579.128906 182.578125 C 586.945312 182.578125 591.636719 181.164062 591.636719 178.761719 C 591.636719 176.753906 588.21875 175.550781 580.183594 174.800781 C 575.164062 174.363281 573.417969 173.882812 573.417969 173.078125 C 573.417969 172.269531 575.34375 171.761719 578.472656 171.761719 C 581.855469 171.761719 583.925781 172.441406 583.925781 173.570312 L 591.089844 173.570312 C 591.089844 171.027344 586.144531 169.386719 578.363281 169.386719 C 570.835938 169.386719 566.183594 170.828125 566.183594 173.148438 C 566.183594 175.199219 569.78125 176.441406 577.453125 177.078125 C 582.035156 177.460938 584.144531 177.984375 584.144531 178.875 C 584.144531 179.722656 582.21875 180.21875 579.054688 180.21875 C 575.492188 180.21875 573.164062 179.511719 573.164062 178.296875 L 565.890625 178.296875 C 565.890625 180.925781 570.980469 182.578125 579.128906 182.578125 Z M 579.128906 182.578125 "/>
</g>
</svg>
